<?xml version="1.0" encoding="utf-8"?>
<!-- Generator: Adobe Illustrator 27.5.0, SVG Export Plug-In . SVG Version: 6.00 Build 0)  -->
<svg version="1.1" xmlns="http://www.w3.org/2000/svg" xmlns:xlink="http://www.w3.org/1999/xlink" x="0px" y="0px"
	 viewBox="0 0 750 500" style="enable-background:new 0 0 750 500;" xml:space="preserve">
<g id="BACKGROUND">
	<rect style="fill:#FFFFFF;" width="750" height="500"/>
</g>
<g id="OBJECTS">
	<g>
		<defs>
			<rect id="SVGID_1_" x="138.281" y="78.388" width="473.438" height="377.552"/>
		</defs>
		<clipPath id="SVGID_00000150811550674983808390000000717177372555319429_">
			<use xlink:href="#SVGID_1_"  style="overflow:visible;"/>
		</clipPath>
		<g style="clip-path:url(#SVGID_00000150811550674983808390000000717177372555319429_);">
			<circle style="fill:#ECEBFF;" cx="388.205" cy="309.069" r="172.944"/>
			<g>
				<defs>
					<circle id="SVGID_00000067934904167042351300000008074822874803699380_" cx="388.205" cy="309.162" r="172.944"/>
				</defs>
				<clipPath id="SVGID_00000015323246580421493870000012237481440160649372_">
					<use xlink:href="#SVGID_00000067934904167042351300000008074822874803699380_"  style="overflow:visible;"/>
				</clipPath>
				<g style="clip-path:url(#SVGID_00000015323246580421493870000012237481440160649372_);">
					<g>
						<g>
							<g>
								<g>
									<path style="fill:none;stroke:#FFFFFF;stroke-miterlimit:10;" d="M360.3,137.535c-0.036-0.975-0.027-1.953-0.1-2.926
										l-0.23-2.919"/>
									<path style="fill:none;" d="M361.784,129.602c0.219,1.642,0.286,3.3,0.434,4.95c0.086,1.654,0.099,3.311,0.151,4.966
										h-4.082c-0.051-1.578-0.063-3.157-0.144-4.733c-0.144-1.571-0.204-3.152-0.414-4.716L361.784,129.602z"/>
								</g>
								<g>
									<polyline style="fill:none;stroke:#FFFFFF;stroke-miterlimit:10;" points="359.522,127.866 359.331,126.415 
										359.069,124.974 358.537,122.094 									"/>
									<path style="fill:none;" d="M360.069,119.816c0.787,3.219,1.314,6.498,1.715,9.785l-4.055,0.467
										c-0.384-3.132-0.883-6.254-1.634-9.32L360.069,119.816z"/>
								</g>
								<g>
									<path style="fill:none;stroke:#FFFFFF;stroke-miterlimit:10;" d="M357.645,118.348c-0.227-0.949-0.537-1.877-0.801-2.816
										c-0.275-0.937-0.536-1.878-0.878-2.793"/>
									<path style="fill:none;" d="M357.246,110.292c0.551,1.563,1.113,3.122,1.548,4.722l0.698,2.385l0.578,2.417l-3.974,0.933
										l-0.549-2.302l-0.666-2.271c-0.413-1.524-0.95-3.009-1.474-4.497L357.246,110.292z"/>
								</g>
								<g>
									<path style="fill:none;stroke:#FFFFFF;stroke-miterlimit:10;" d="M354.661,109.117c-0.733-1.81-1.453-3.625-2.317-5.377"/>
									<path style="fill:none;" d="M353.359,101.15c0.688,1.506,1.436,2.987,2.072,4.516c0.604,1.542,1.303,3.048,1.814,4.626
										l-3.839,1.386c-0.484-1.504-1.154-2.937-1.728-4.407c-0.606-1.457-1.321-2.867-1.974-4.303L353.359,101.15z"/>
								</g>
								<g>
									<path style="fill:none;stroke:#FFFFFF;stroke-miterlimit:10;" d="M350.628,100.294c-0.88-1.744-1.891-3.414-2.894-5.09"/>
									<path style="fill:none;" d="M348.423,92.533c0.946,1.36,1.722,2.828,2.59,4.238c0.823,1.437,1.568,2.917,2.347,4.379
										l-3.655,1.817c-0.744-1.392-1.453-2.804-2.237-4.174c-0.83-1.343-1.565-2.745-2.47-4.041L348.423,92.533z"/>
								</g>
								<g>
									<path style="fill:none;stroke:#FFFFFF;stroke-miterlimit:10;" d="M345.634,91.977c-0.523-0.825-1.117-1.6-1.693-2.388
										c-0.589-0.778-1.134-1.591-1.758-2.341"/>
									<path style="fill:none;" d="M342.565,84.52l1.565,1.927l1.473,1.999c1.007,1.315,1.905,2.707,2.819,4.088l-3.426,2.219
										c-0.872-1.316-1.727-2.645-2.69-3.899l-1.405-1.908l-1.495-1.839L342.565,84.52z"/>
								</g>
								<g>
									<path style="fill:none;stroke:#FFFFFF;stroke-miterlimit:10;" d="M339.745,84.267c-1.312-1.445-2.572-2.939-3.973-4.301"/>
									<path style="fill:none;" d="M335.871,77.194c2.342,2.336,4.619,4.746,6.694,7.326l-3.157,2.587
										c-1.98-2.463-4.155-4.762-6.391-6.994L335.871,77.194z"/>
								</g>
								<g>
									<path style="fill:none;stroke:#FFFFFF;stroke-miterlimit:10;" d="M333.018,77.276c-0.721-0.658-1.429-1.331-2.16-1.977
										l-2.245-1.88"/>
									<path style="fill:none;" d="M328.404,70.66c1.314,1.005,2.55,2.108,3.828,3.158c1.22,1.117,2.452,2.223,3.639,3.376
										l-2.853,2.919c-1.133-1.1-2.311-2.156-3.475-3.224c-1.222-1.002-2.401-2.058-3.657-3.017L328.404,70.66z"/>
								</g>
								<g>
									<polyline style="fill:none;stroke:#FFFFFF;stroke-miterlimit:10;" points="325.58,71.047 324.415,70.162 323.209,69.331 
										320.794,67.675 									"/>
									<path style="fill:none;" d="M320.272,64.979c2.826,1.721,5.514,3.66,8.132,5.681l-2.519,3.212
										c-2.502-1.93-5.069-3.784-7.77-5.428L320.272,64.979z"/>
								</g>
								<g>
									<path style="fill:none;stroke:#FFFFFF;stroke-miterlimit:10;" d="M317.521,65.646c-0.837-0.501-1.702-0.956-2.551-1.436
										c-0.85-0.48-1.704-0.953-2.587-1.371"/>
									<path style="fill:none;" d="M311.585,60.194c1.481,0.736,2.977,1.444,4.407,2.277l2.168,1.206l2.112,1.302l-2.157,3.465
										l-2.018-1.245l-2.073-1.152c-1.366-0.797-2.797-1.472-4.212-2.177L311.585,60.194z"/>
								</g>
								<g>
									<path style="fill:none;stroke:#FFFFFF;stroke-miterlimit:10;" d="M308.916,61.164c-1.787-0.787-3.57-1.583-5.408-2.243"/>
									<path style="fill:none;" d="M302.439,56.355c1.54,0.602,3.103,1.148,4.624,1.798c1.505,0.685,3.055,1.273,4.522,2.04
										l-1.773,3.677c-1.401-0.736-2.885-1.294-4.322-1.951c-1.453-0.622-2.949-1.142-4.42-1.719L302.439,56.355z"/>
								</g>
								<g>
									<path style="fill:none;stroke:#FFFFFF;stroke-miterlimit:10;" d="M299.88,57.631c-0.93-0.296-1.85-0.624-2.788-0.894
										l-2.824-0.775"/>
									<path style="fill:none;" d="M292.93,53.541c1.612,0.366,3.194,0.855,4.793,1.278c1.579,0.489,3.149,1.012,4.717,1.536
										l-1.37,3.845c-1.5-0.5-3-1.001-4.51-1.469c-1.529-0.402-3.041-0.872-4.583-1.221L292.93,53.541z"/>
								</g>
								<g>
									<path style="fill:none;stroke:#FFFFFF;stroke-miterlimit:10;" d="M290.523,55.071c-1.897-0.469-3.836-0.724-5.755-1.078"/>
									<path style="fill:none;" d="M283.178,51.75c3.281,0.409,6.532,1.039,9.752,1.792l-0.953,3.969
										c-3.079-0.718-6.188-1.323-9.328-1.713L283.178,51.75z"/>
								</g>
								<g>
									<path style="fill:none;stroke:#FFFFFF;stroke-miterlimit:10;" d="M280.948,53.508c-0.967-0.14-1.943-0.186-2.916-0.263
										c-0.974-0.065-1.946-0.159-2.921-0.199"/>
									<path style="fill:none;" d="M273.296,50.984c0.826,0.026,1.653,0.029,2.478,0.073l2.473,0.181
										c1.651,0.089,3.291,0.306,4.931,0.511l-0.529,4.047c-1.57-0.196-3.138-0.405-4.719-0.489l-2.367-0.174
										c-0.79-0.043-1.582-0.045-2.372-0.069L273.296,50.984z"/>
								</g>
								<g>
									<path style="fill:none;stroke:#FFFFFF;stroke-miterlimit:10;" d="M271.262,52.952c-0.976-0.02-1.952,0.036-2.927,0.05
										c-0.975,0.037-1.953,0.016-2.926,0.111"/>
									<path style="fill:none;" d="M263.39,51.239l2.473-0.181c0.825-0.045,1.652-0.048,2.478-0.073l2.478-0.06l2.478,0.06
										l-0.105,4.08l-2.373-0.059l-2.373,0.059c-0.791,0.025-1.583,0.027-2.372,0.069l-2.367,0.174L263.39,51.239z"/>
								</g>
								<g>
									<polyline style="fill:none;stroke:#FFFFFF;stroke-miterlimit:10;" points="261.569,53.4 258.662,53.757 257.209,53.936 
										255.766,54.184 									"/>
									<path style="fill:none;" d="M253.559,52.518c1.631-0.27,3.253-0.601,4.899-0.768c1.641-0.205,3.28-0.422,4.931-0.511
										l0.317,4.069c-1.581,0.084-3.149,0.293-4.719,0.489c-1.575,0.157-3.126,0.477-4.686,0.734L253.559,52.518z"/>
								</g>
								<g>
									<path style="fill:none;stroke:#FFFFFF;stroke-miterlimit:10;" d="M251.979,54.878c-1.906,0.424-3.817,0.826-5.69,1.381"/>
									<path style="fill:none;" d="M243.914,54.819c1.598-0.423,3.181-0.912,4.793-1.278c1.619-0.336,3.217-0.776,4.853-1.024
										l0.741,4.014c-1.565,0.235-3.093,0.66-4.641,0.979c-1.542,0.349-3.054,0.819-4.583,1.221L243.914,54.819z"/>
								</g>
								<g>
									<path style="fill:none;stroke:#FFFFFF;stroke-miterlimit:10;" d="M242.599,57.355c-0.926,0.308-1.859,0.597-2.779,0.921
										l-2.736,1.043"/>
									<path style="fill:none;" d="M234.573,58.153c1.521-0.65,3.084-1.196,4.624-1.798c1.568-0.524,3.138-1.048,4.717-1.536
										l1.163,3.913c-1.51,0.468-3.01,0.969-4.51,1.469c-1.472,0.577-2.967,1.097-4.42,1.719L234.573,58.153z"/>
								</g>
								<g>
									<path style="fill:none;stroke:#FFFFFF;stroke-miterlimit:10;" d="M233.534,60.809c-1.807,0.742-3.523,1.681-5.282,2.527"/>
									<path style="fill:none;" d="M225.644,62.471c2.886-1.618,5.888-3.019,8.929-4.318l1.573,3.766
										c-2.907,1.242-5.777,2.579-8.535,4.127L225.644,62.471z"/>
								</g>
								<g>
									<path style="fill:none;stroke:#FFFFFF;stroke-miterlimit:10;" d="M224.883,65.202c-0.857,0.468-1.667,1.016-2.502,1.52
										c-0.828,0.517-1.669,1.013-2.462,1.583"/>
									<path style="fill:none;" d="M217.223,67.711c1.359-0.943,2.719-1.886,4.141-2.732l2.112-1.302l2.168-1.206l1.968,3.576
										l-2.073,1.152l-2.018,1.245c-1.36,0.807-2.658,1.71-3.957,2.611L217.223,67.711z"/>
								</g>
								<g>
									<path style="fill:none;stroke:#FFFFFF;stroke-miterlimit:10;" d="M216.762,70.51c-1.555,1.18-3.125,2.342-4.597,3.626"/>
									<path style="fill:none;" d="M209.404,73.818c2.516-2.149,5.094-4.228,7.819-6.107l2.341,3.344
										c-2.604,1.795-5.066,3.783-7.47,5.834L209.404,73.818z"/>
								</g>
								<g>
									<path style="fill:none;stroke:#FFFFFF;stroke-miterlimit:10;" d="M209.27,76.674c-0.71,0.67-1.453,1.305-2.135,2.003
										l-2.056,2.085"/>
									<path style="fill:none;" d="M202.319,80.766c1.084-1.252,2.301-2.378,3.446-3.572c1.187-1.152,2.419-2.258,3.638-3.376
										l2.689,3.071c-1.164,1.068-2.341,2.124-3.475,3.224c-1.092,1.142-2.257,2.215-3.29,3.411L202.319,80.766z"/>
								</g>
								<g>
									<path style="fill:none;stroke:#FFFFFF;stroke-miterlimit:10;" d="M202.483,83.606c-0.666,0.715-1.273,1.479-1.888,2.237
										c-0.607,0.764-1.251,1.5-1.827,2.288"/>
									<path style="fill:none;" d="M196.032,88.446l1.473-1.999l1.565-1.927c1.019-1.306,2.146-2.519,3.248-3.754l3.009,2.758
										c-1.051,1.179-2.129,2.336-3.1,3.583l-1.495,1.839l-1.405,1.908L196.032,88.446z"/>
								</g>
								<g>
									<path style="fill:none;stroke:#FFFFFF;stroke-miterlimit:10;" d="M196.492,91.237c-1.064,1.636-2.202,3.227-3.162,4.928"/>
									<path style="fill:none;" d="M190.623,96.771c1.668-2.86,3.43-5.671,5.409-8.326l3.296,2.408
										c-1.89,2.532-3.567,5.214-5.159,7.94L190.623,96.771z"/>
								</g>
								<g>
									<polyline style="fill:none;stroke:#FFFFFF;stroke-miterlimit:10;" points="191.423,99.51 190.059,102.1 188.818,104.753 
																			"/>
									<path style="fill:none;" d="M186.204,105.666c0.637-1.529,1.384-3.009,2.072-4.516c0.779-1.461,1.524-2.942,2.347-4.379
										l3.546,2.022c-0.785,1.37-1.493,2.782-2.237,4.174c-0.654,1.437-1.368,2.846-1.974,4.303L186.204,105.666z"/>
								</g>
								<g>
									<path style="fill:none;stroke:#FFFFFF;stroke-miterlimit:10;" d="M187.31,108.295c-0.781,1.791-1.339,3.667-2.007,5.5"/>
									<path style="fill:none;" d="M182.843,115.014c0.911-3.187,2.086-6.292,3.362-9.348l3.753,1.605
										c-1.214,2.912-2.335,5.869-3.202,8.905L182.843,115.014z"/>
								</g>
								<g>
									<path style="fill:none;stroke:#FFFFFF;stroke-miterlimit:10;" d="M184.218,117.491c-0.267,0.939-0.464,1.896-0.7,2.843
										c-0.229,0.949-0.465,1.896-0.622,2.86"/>
									<path style="fill:none;" d="M180.569,124.685c0.299-1.63,0.58-3.264,0.998-4.868l0.578-2.417l0.698-2.385l3.913,1.162
										l-0.666,2.271l-0.549,2.302c-0.4,1.528-0.665,3.084-0.951,4.636L180.569,124.685z"/>
								</g>
								<g>
									<path style="fill:none;stroke:#FFFFFF;stroke-miterlimit:10;" d="M182.23,126.986c-0.252,1.936-0.542,3.868-0.652,5.818"/>
									<path style="fill:none;" d="M179.418,134.552c0.222-3.305,0.563-6.605,1.151-9.867l4.021,0.701
										c-0.561,3.106-0.884,6.25-1.097,9.399L179.418,134.552z"/>
								</g>
								<g>
									<polyline style="fill:none;stroke:#FFFFFF;stroke-miterlimit:10;" points="181.359,136.648 181.286,139.576 
										181.362,142.503 									"/>
									<path style="fill:none;" d="M179.418,144.484c-0.086-1.654-0.099-3.311-0.151-4.966c0.051-1.655,0.065-3.313,0.151-4.966
										l4.075,0.233c-0.081,1.576-0.093,3.156-0.144,4.733c0.051,1.578,0.063,3.157,0.144,4.733L179.418,144.484z"/>
								</g>
								<g>
									<path style="fill:none;stroke:#FFFFFF;stroke-miterlimit:10;" d="M181.587,146.346c0.109,1.951,0.411,3.881,0.658,5.818"/>
									<path style="fill:none;" d="M180.569,154.351c-0.588-3.262-0.929-6.562-1.151-9.867l4.075-0.233
										c0.214,3.149,0.536,6.293,1.097,9.399L180.569,154.351z"/>
								</g>
								<g>
									<path style="fill:none;stroke:#FFFFFF;stroke-miterlimit:10;" d="M182.917,155.955c0.156,0.964,0.404,1.909,0.628,2.859
										c0.238,0.946,0.427,1.906,0.706,2.841"/>
									<path style="fill:none;" d="M182.843,164.022l-0.698-2.385l-0.578-2.417c-0.418-1.605-0.699-3.238-0.998-4.868l4.021-0.701
										c0.286,1.552,0.55,3.108,0.951,4.636l0.549,2.302l0.666,2.271L182.843,164.022z"/>
								</g>
								<g>
									<path style="fill:none;stroke:#FFFFFF;stroke-miterlimit:10;" d="M185.34,165.35c0.666,1.835,1.233,3.707,2.014,5.498"/>
									<path style="fill:none;" d="M186.204,173.37c-1.276-3.056-2.451-6.161-3.362-9.348l3.913-1.162
										c0.866,3.035,1.987,5.992,3.202,8.905L186.204,173.37z"/>
								</g>
								<g>
									<polyline style="fill:none;stroke:#FFFFFF;stroke-miterlimit:10;" points="188.867,174.387 190.107,177.04 
										191.477,179.628 									"/>
									<path style="fill:none;" d="M190.623,182.264c-0.823-1.437-1.568-2.917-2.347-4.379c-0.688-1.506-1.436-2.987-2.072-4.516
										l3.753-1.605c0.606,1.457,1.321,2.867,1.974,4.303c0.744,1.392,1.453,2.804,2.237,4.174L190.623,182.264z"/>
								</g>
								<g>
									<path style="fill:none;stroke:#FFFFFF;stroke-miterlimit:10;" d="M193.389,182.97c0.959,1.702,2.107,3.286,3.167,4.925"/>
									<path style="fill:none;" d="M196.032,190.59c-1.979-2.655-3.74-5.466-5.409-8.326l3.546-2.022
										c1.592,2.726,3.27,5.408,5.159,7.94L196.032,190.59z"/>
								</g>
								<g>
									<path style="fill:none;stroke:#FFFFFF;stroke-miterlimit:10;" d="M198.836,190.998c0.585,0.781,1.223,1.521,1.832,2.284
										c0.611,0.762,1.227,1.518,1.892,2.234"/>
									<path style="fill:none;" d="M202.319,198.27c-1.102-1.235-2.229-2.448-3.248-3.754l-1.565-1.927l-1.473-1.999l3.296-2.408
										l1.405,1.908l1.495,1.839c0.971,1.247,2.049,2.404,3.1,3.583L202.319,198.27z"/>
								</g>
								<g>
									<path style="fill:none;stroke:#FFFFFF;stroke-miterlimit:10;" d="M205.16,198.355l2.056,2.085
										c0.69,0.69,1.428,1.331,2.139,1.999"/>
									<path style="fill:none;" d="M209.404,205.218c-1.219-1.117-2.452-2.223-3.638-3.376c-1.145-1.194-2.362-2.32-3.446-3.572
										l3.009-2.758c1.033,1.196,2.199,2.269,3.29,3.411c1.133,1.1,2.311,2.156,3.475,3.224L209.404,205.218z"/>
								</g>
								<g>
									<path style="fill:none;stroke:#FFFFFF;stroke-miterlimit:10;" d="M212.254,204.974c1.472,1.285,3.049,2.437,4.601,3.621"/>
									<path style="fill:none;" d="M217.223,211.325c-2.724-1.879-5.303-3.958-7.819-6.107l2.689-3.071
										c2.404,2.051,4.867,4.039,7.47,5.834L217.223,211.325z"/>
								</g>
								<g>
									<path style="fill:none;stroke:#FFFFFF;stroke-miterlimit:10;" d="M220.014,210.796c0.793,0.571,1.64,1.058,2.465,1.579
										c0.837,0.502,1.643,1.056,2.505,1.515"/>
									<path style="fill:none;" d="M225.644,216.565l-2.168-1.206l-2.112-1.302c-1.423-0.846-2.782-1.789-4.141-2.732l2.341-3.344
										c1.299,0.901,2.597,1.803,3.957,2.611l2.018,1.245l2.073,1.152L225.644,216.565z"/>
								</g>
								<g>
									<path style="fill:none;stroke:#FFFFFF;stroke-miterlimit:10;" d="M228.355,215.751c1.757,0.851,3.477,1.779,5.284,2.522"/>
									<path style="fill:none;" d="M234.573,220.883c-3.041-1.298-6.043-2.699-8.929-4.318l1.968-3.576
										c2.757,1.548,5.628,2.885,8.535,4.127L234.573,220.883z"/>
								</g>
								<g>
									<polyline style="fill:none;stroke:#FFFFFF;stroke-miterlimit:10;" points="237.192,219.758 239.928,220.801 
										242.709,221.716 									"/>
									<path style="fill:none;" d="M243.914,224.217c-1.579-0.489-3.149-1.012-4.717-1.536c-1.54-0.602-3.103-1.148-4.624-1.798
										l1.573-3.766c1.453,0.622,2.948,1.142,4.42,1.719c1.5,0.5,3,1.001,4.51,1.469L243.914,224.217z"/>
								</g>
								<g>
									<path style="fill:none;stroke:#FFFFFF;stroke-miterlimit:10;" d="M246.401,222.808c1.873,0.556,3.787,0.947,5.691,1.375"/>
									<path style="fill:none;" d="M253.559,226.518c-1.636-0.247-3.234-0.688-4.853-1.024c-1.612-0.366-3.194-0.855-4.793-1.278
										l1.163-3.913c1.529,0.402,3.041,0.872,4.583,1.221c1.548,0.319,3.076,0.744,4.641,0.979L253.559,226.518z"/>
								</g>
								<g>
									<path style="fill:none;stroke:#FFFFFF;stroke-miterlimit:10;" d="M255.88,224.872c0.959,0.183,1.927,0.311,2.897,0.421
										l2.906,0.356"/>
									<path style="fill:none;" d="M263.39,227.797c-1.652-0.089-3.291-0.306-4.931-0.511c-1.646-0.166-3.268-0.498-4.899-0.768
										l0.741-4.014c1.56,0.257,3.111,0.577,4.686,0.734c1.57,0.196,3.138,0.405,4.719,0.489L263.39,227.797z"/>
								</g>
								<g>
									<path style="fill:none;stroke:#FFFFFF;stroke-miterlimit:10;" d="M265.524,225.931c0.973,0.091,1.951,0.066,2.926,0.105
										c0.976,0.012,1.951,0.075,2.927,0.044"/>
									<path style="fill:none;" d="M273.296,228.052l-2.478,0.06l-2.478-0.06c-0.826-0.025-1.653-0.029-2.478-0.073l-2.473-0.181
										l0.317-4.07l2.367,0.174c0.79,0.043,1.582,0.045,2.372,0.069l2.373,0.059l2.373-0.059L273.296,228.052z"/>
								</g>
								<g>
									<path style="fill:none;stroke:#FFFFFF;stroke-miterlimit:10;" d="M275.227,225.987l2.921-0.205
										c0.974-0.072,1.948-0.129,2.915-0.268"/>
									<path style="fill:none;" d="M283.178,227.286c-1.641,0.205-3.28,0.422-4.931,0.511l-2.473,0.181
										c-0.825,0.045-1.652,0.048-2.478,0.073l-0.105-4.08c0.791-0.025,1.583-0.026,2.372-0.069l2.367-0.174
										c1.581-0.084,3.149-0.293,4.719-0.489L283.178,227.286z"/>
								</g>
								<g>
									<path style="fill:none;stroke:#FFFFFF;stroke-miterlimit:10;" d="M284.882,225.023c1.921-0.348,3.857-0.615,5.754-1.083"/>
									<path style="fill:none;" d="M292.93,225.494c-3.22,0.752-6.471,1.383-9.752,1.792l-0.529-4.047
										c3.139-0.39,6.248-0.995,9.328-1.713L292.93,225.494z"/>
								</g>
								<g>
									<path style="fill:none;stroke:#FFFFFF;stroke-miterlimit:10;" d="M294.38,223.043l2.824-0.775
										c0.935-0.281,1.857-0.601,2.787-0.899"/>
									<path style="fill:none;" d="M302.439,222.68c-1.568,0.524-3.138,1.048-4.717,1.536c-1.598,0.423-3.18,0.912-4.793,1.278
										l-0.953-3.969c1.542-0.349,3.054-0.819,4.583-1.221c1.51-0.468,3.01-0.969,4.51-1.469L302.439,222.68z"/>
								</g>
								<g>
									<path style="fill:none;stroke:#FFFFFF;stroke-miterlimit:10;" d="M303.616,220.074c1.839-0.659,3.617-1.467,5.406-2.249"/>
									<path style="fill:none;" d="M311.585,218.842c-1.467,0.767-3.017,1.355-4.522,2.04c-1.521,0.65-3.083,1.196-4.624,1.798
										l-1.37-3.845c1.472-0.577,2.967-1.097,4.42-1.719c1.438-0.657,2.921-1.215,4.322-1.951L311.585,218.842z"/>
								</g>
								<g>
									<path style="fill:none;stroke:#FFFFFF;stroke-miterlimit:10;" d="M312.486,216.145c0.883-0.416,1.732-0.9,2.584-1.376
										c0.848-0.482,1.717-0.931,2.549-1.441"/>
									<path style="fill:none;" d="M320.272,214.057l-2.112,1.302l-2.168,1.206c-1.43,0.833-2.926,1.541-4.407,2.277l-1.773-3.677
										c1.415-0.705,2.846-1.379,4.212-2.177l2.073-1.152l2.018-1.245L320.272,214.057z"/>
								</g>
								<g>
									<path style="fill:none;stroke:#FFFFFF;stroke-miterlimit:10;" d="M320.891,211.299c1.594-1.126,3.253-2.163,4.781-3.38"/>
									<path style="fill:none;" d="M328.404,208.376c-2.618,2.021-5.306,3.96-8.132,5.681l-2.157-3.465
										c2.701-1.644,5.269-3.498,7.77-5.428L328.404,208.376z"/>
								</g>
								<g>
									<polyline style="fill:none;stroke:#FFFFFF;stroke-miterlimit:10;" points="328.702,205.544 330.947,203.663 
										333.103,201.682 									"/>
									<path style="fill:none;" d="M335.871,201.842c-1.187,1.152-2.419,2.258-3.639,3.376c-1.278,1.05-2.514,2.154-3.828,3.158
										l-2.519-3.212c1.256-0.959,2.435-2.015,3.657-3.017c1.164-1.068,2.341-2.124,3.475-3.224L335.871,201.842z"/>
								</g>
								<g>
									<path style="fill:none;stroke:#FFFFFF;stroke-miterlimit:10;" d="M335.853,198.987c1.402-1.36,2.653-2.863,3.969-4.304"/>
									<path style="fill:none;" d="M342.565,194.516c-2.076,2.58-4.352,4.99-6.694,7.326l-2.853-2.919
										c2.236-2.232,4.411-4.531,6.391-6.994L342.565,194.516z"/>
								</g>
								<g>
									<path style="fill:none;stroke:#FFFFFF;stroke-miterlimit:10;" d="M342.256,191.698c0.616-0.757,1.167-1.565,1.754-2.345
										c0.58-0.785,1.165-1.567,1.689-2.391"/>
									<path style="fill:none;" d="M348.423,186.503c-0.914,1.38-1.812,2.773-2.819,4.087l-1.473,1.999l-1.565,1.927l-3.157-2.587
										l1.495-1.839l1.405-1.908c0.963-1.254,1.817-2.583,2.69-3.899L348.423,186.503z"/>
								</g>
								<g>
									<path style="fill:none;stroke:#FFFFFF;stroke-miterlimit:10;" d="M347.793,183.732l1.497-2.517
										c0.5-0.839,0.926-1.719,1.392-2.576"/>
									<path style="fill:none;" d="M353.359,177.886c-0.779,1.461-1.524,2.942-2.347,4.379c-0.868,1.41-1.643,2.878-2.59,4.238
										l-3.426-2.219c0.905-1.296,1.64-2.698,2.47-4.041c0.784-1.37,1.493-2.782,2.237-4.174L353.359,177.886z"/>
								</g>
								<g>
									<path style="fill:none;stroke:#FFFFFF;stroke-miterlimit:10;" d="M352.393,175.191c0.864-1.752,1.574-3.572,2.311-5.379"/>
									<path style="fill:none;" d="M357.246,168.744c-0.51,1.578-1.21,3.084-1.814,4.626c-0.637,1.529-1.384,3.01-2.072,4.516
										l-3.655-1.817c0.654-1.437,1.368-2.846,1.974-4.303c0.573-1.47,1.244-2.903,1.728-4.407L357.246,168.744z"/>
								</g>
								<g>
									<path style="fill:none;stroke:#FFFFFF;stroke-miterlimit:10;" d="M356.003,166.187c0.344-0.915,0.592-1.859,0.873-2.794
										c0.262-0.94,0.58-1.865,0.796-2.818"/>
									<path style="fill:none;" d="M360.069,159.219l-0.578,2.417l-0.698,2.385c-0.435,1.6-0.997,3.159-1.548,4.722l-3.839-1.386
										c0.524-1.489,1.061-2.973,1.474-4.497l0.666-2.271l0.549-2.302L360.069,159.219z"/>
								</g>
								<g>
									<path style="fill:none;stroke:#FFFFFF;stroke-miterlimit:10;" d="M358.558,156.828c0.33-1.924,0.772-3.83,0.978-5.773"/>
									<path style="fill:none;" d="M361.784,149.434c-0.401,3.288-0.928,6.566-1.715,9.785l-3.974-0.933
										c0.751-3.066,1.25-6.188,1.634-9.32L361.784,149.434z"/>
								</g>
								<g>
									<path style="fill:none;stroke:#FFFFFF;stroke-miterlimit:10;" d="M359.979,147.231l0.23-2.919
										c0.061-0.974,0.061-1.951,0.094-2.926"/>
									<path style="fill:none;" d="M362.369,139.518c-0.052,1.655-0.065,3.313-0.151,4.966c-0.148,1.65-0.216,3.307-0.434,4.95
										l-4.055-0.467c0.21-1.564,0.27-3.145,0.414-4.716c0.081-1.576,0.093-3.156,0.144-4.733H362.369z"/>
								</g>
							</g>
						</g>
					</g>
				</g>
				<g style="clip-path:url(#SVGID_00000015323246580421493870000012237481440160649372_);">
					<g>
						<g>
							<g>
								<g>
									<path style="fill:none;stroke:#FFFFFF;stroke-miterlimit:10;" d="M246.661,357.045c-0.032-0.491-0.028-0.985-0.09-1.473
										l-0.212-1.461l-0.212-1.461l-0.345-1.435"/>
									<path style="fill:none;" d="M247.273,348.81c0.961,3.329,1.446,6.776,1.5,10.232h-4.082
										c-0.054-3.067-0.484-6.115-1.328-9.058L247.273,348.81z"/>
								</g>
								<g>
									<path style="fill:none;stroke:#FFFFFF;stroke-miterlimit:10;" d="M244.685,347.501c-0.284-0.945-0.747-1.819-1.144-2.719
										c-0.374-0.913-0.896-1.75-1.385-2.604"/>
									<path style="fill:none;" d="M242.831,339.457c1.915,2.888,3.428,6.038,4.442,9.352l-3.909,1.174
										c-0.897-2.926-2.235-5.703-3.918-8.247L242.831,339.457z"/>
								</g>
								<g>
									<path style="fill:none;stroke:#FFFFFF;stroke-miterlimit:10;" d="M240.001,338.954c-0.598-0.78-1.273-1.5-1.906-2.253
										c-0.663-0.726-1.408-1.374-2.109-2.065"/>
									<path style="fill:none;" d="M235.777,331.858c2.721,2.152,5.159,4.692,7.054,7.599l-3.386,2.28
										c-1.664-2.564-3.813-4.787-6.192-6.671L235.777,331.858z"/>
								</g>
								<g>
									<path style="fill:none;stroke:#FFFFFF;stroke-miterlimit:10;" d="M232.929,332.249c-0.84-0.511-1.633-1.105-2.512-1.547
										c-0.887-0.425-1.735-0.936-2.653-1.291"/>
									<path style="fill:none;" d="M226.675,326.83c3.317,1.104,6.367,2.897,9.102,5.028l-2.523,3.208
										c-2.393-1.862-5.049-3.433-7.932-4.385L226.675,326.83z"/>
								</g>
								<g>
									<path style="fill:none;stroke:#FFFFFF;stroke-miterlimit:10;" d="M224.096,328.15l-1.425-0.386
										c-0.479-0.109-0.97-0.165-1.454-0.25l-1.458-0.234c-0.486-0.079-0.981-0.067-1.471-0.105"/>
									<path style="fill:none;" d="M216.407,325.058c3.49,0.047,6.969,0.635,10.268,1.772l-1.352,3.851
										c-2.866-0.984-5.88-1.495-8.915-1.542V325.058z"/>
								</g>
								<g>
									<path style="fill:none;stroke:#FFFFFF;stroke-miterlimit:10;" d="M214.41,327.181c-0.987,0.009-1.956,0.195-2.928,0.352
										c-0.483,0.09-0.978,0.129-1.452,0.262l-1.425,0.386"/>
									<path style="fill:none;" d="M206.14,326.83c3.299-1.137,6.778-1.725,10.268-1.772v4.082
										c-3.035,0.047-6.049,0.557-8.915,1.542L206.14,326.83z"/>
								</g>
								<g>
									<path style="fill:none;stroke:#FFFFFF;stroke-miterlimit:10;" d="M204.942,329.453c-0.909,0.376-1.764,0.871-2.648,1.301
										c-0.868,0.462-1.669,1.042-2.507,1.557"/>
									<path style="fill:none;" d="M197.037,331.858c2.735-2.131,5.786-3.923,9.102-5.028l1.352,3.851
										c-2.883,0.952-5.538,2.523-7.931,4.385L197.037,331.858z"/>
								</g>
								<g>
									<path style="fill:none;stroke:#FFFFFF;stroke-miterlimit:10;" d="M196.745,334.717c-0.697,0.694-1.454,1.331-2.101,2.072
										c-0.629,0.756-1.317,1.466-1.898,2.26"/>
									<path style="fill:none;" d="M189.983,339.457c1.895-2.907,4.333-5.447,7.054-7.599l2.523,3.208
										c-2.379,1.884-4.528,4.107-6.192,6.671L189.983,339.457z"/>
								</g>
								<g>
									<path style="fill:none;stroke:#FFFFFF;stroke-miterlimit:10;" d="M190.6,342.28c-0.498,0.849-0.999,1.697-1.375,2.609
										c-0.407,0.896-0.848,1.778-1.134,2.723"/>
									<path style="fill:none;" d="M185.541,348.81c1.014-3.314,2.527-6.465,4.442-9.352l3.386,2.28
										c-1.683,2.544-3.021,5.32-3.918,8.247L185.541,348.81z"/>
								</g>
								<g>
									<path style="fill:none;stroke:#FFFFFF;stroke-miterlimit:10;" d="M186.985,351.328c-0.11,0.479-0.249,0.953-0.334,1.437
										l-0.212,1.461l-0.212,1.461c-0.04,0.49-0.052,0.982-0.079,1.474"/>
									<path style="fill:none;" d="M184.041,359.042c0.054-3.456,0.54-6.903,1.5-10.232l3.909,1.174
										c-0.844,2.942-1.273,5.99-1.328,9.058H184.041z"/>
								</g>
								<g>
									<path style="fill:none;stroke:#FFFFFF;stroke-miterlimit:10;" d="M186.154,361.039c0.032,0.491,0.028,0.985,0.09,1.473
										l0.212,1.461l0.212,1.461l0.345,1.435"/>
									<path style="fill:none;" d="M185.541,369.274c-0.961-3.329-1.446-6.776-1.5-10.232h4.082
										c0.054,3.067,0.484,6.115,1.328,9.058L185.541,369.274z"/>
								</g>
								<g>
									<path style="fill:none;stroke:#FFFFFF;stroke-miterlimit:10;" d="M188.129,370.582c0.284,0.945,0.747,1.819,1.144,2.719
										c0.374,0.913,0.896,1.75,1.385,2.604"/>
									<path style="fill:none;" d="M189.983,378.626c-1.915-2.888-3.428-6.038-4.442-9.352l3.909-1.174
										c0.897,2.926,2.235,5.703,3.918,8.247L189.983,378.626z"/>
								</g>
								<g>
									<path style="fill:none;stroke:#FFFFFF;stroke-miterlimit:10;" d="M192.814,379.13c0.598,0.78,1.273,1.5,1.906,2.253
										c0.663,0.726,1.408,1.374,2.109,2.064"/>
									<path style="fill:none;" d="M197.037,386.225c-2.721-2.152-5.159-4.692-7.054-7.599l3.386-2.28
										c1.664,2.564,3.813,4.788,6.192,6.671L197.037,386.225z"/>
								</g>
								<g>
									<path style="fill:none;stroke:#FFFFFF;stroke-miterlimit:10;" d="M199.885,385.835c0.84,0.511,1.633,1.105,2.512,1.547
										c0.887,0.425,1.735,0.936,2.653,1.291"/>
									<path style="fill:none;" d="M206.14,391.253c-3.317-1.104-6.367-2.897-9.102-5.028l2.523-3.208
										c2.394,1.862,5.049,3.433,7.931,4.385L206.14,391.253z"/>
								</g>
								<g>
									<path style="fill:none;stroke:#FFFFFF;stroke-miterlimit:10;" d="M208.718,389.933l1.425,0.386
										c0.479,0.109,0.97,0.165,1.454,0.25l1.458,0.234c0.486,0.079,0.981,0.067,1.471,0.105"/>
									<path style="fill:none;" d="M216.407,393.026c-3.49-0.047-6.969-0.635-10.268-1.772l1.352-3.851
										c2.866,0.984,5.88,1.494,8.915,1.542V393.026z"/>
								</g>
								<g>
									<path style="fill:none;stroke:#FFFFFF;stroke-miterlimit:10;" d="M218.404,390.902c0.987-0.009,1.956-0.195,2.928-0.352
										c0.483-0.09,0.978-0.129,1.452-0.262l1.425-0.386"/>
									<path style="fill:none;" d="M226.675,391.253c-3.299,1.137-6.778,1.726-10.268,1.772v-4.082
										c3.035-0.047,6.049-0.557,8.915-1.542L226.675,391.253z"/>
								</g>
								<g>
									<path style="fill:none;stroke:#FFFFFF;stroke-miterlimit:10;" d="M227.872,388.631c0.909-0.376,1.764-0.872,2.648-1.301
										c0.868-0.462,1.669-1.042,2.507-1.557"/>
									<path style="fill:none;" d="M235.777,386.225c-2.735,2.131-5.785,3.923-9.102,5.028l-1.352-3.851
										c2.883-0.952,5.538-2.523,7.932-4.385L235.777,386.225z"/>
								</g>
								<g>
									<path style="fill:none;stroke:#FFFFFF;stroke-miterlimit:10;" d="M236.069,383.367c0.697-0.694,1.454-1.331,2.101-2.072
										c0.629-0.756,1.317-1.466,1.898-2.26"/>
									<path style="fill:none;" d="M242.831,378.626c-1.895,2.907-4.333,5.447-7.054,7.599l-2.523-3.208
										c2.379-1.884,4.528-4.108,6.192-6.671L242.831,378.626z"/>
								</g>
								<g>
									<path style="fill:none;stroke:#FFFFFF;stroke-miterlimit:10;" d="M242.214,375.804c0.498-0.849,0.999-1.697,1.375-2.609
										c0.407-0.896,0.848-1.778,1.134-2.723"/>
									<path style="fill:none;" d="M247.273,369.274c-1.014,3.314-2.527,6.465-4.442,9.352l-3.386-2.28
										c1.683-2.544,3.021-5.32,3.918-8.247L247.273,369.274z"/>
								</g>
								<g>
									<path style="fill:none;stroke:#FFFFFF;stroke-miterlimit:10;" d="M245.829,366.755c0.11-0.479,0.249-0.953,0.334-1.437
										l0.212-1.461l0.212-1.461c0.04-0.49,0.052-0.983,0.079-1.474"/>
									<path style="fill:none;" d="M248.774,359.042c-0.054,3.456-0.54,6.903-1.5,10.232l-3.909-1.174
										c0.844-2.942,1.273-5.99,1.328-9.058H248.774z"/>
								</g>
							</g>
						</g>
					</g>
				</g>
				<g style="clip-path:url(#SVGID_00000015323246580421493870000012237481440160649372_);">
					<g>
						<g>
							<g>
								<g>
									<path style="fill:none;stroke:#FFFFFF;stroke-miterlimit:10;" d="M560.663,386.297c-0.032-0.491-0.028-0.985-0.09-1.473
										l-0.212-1.461l-0.212-1.461l-0.345-1.435"/>
									<path style="fill:none;" d="M561.276,378.062c0.961,3.329,1.446,6.776,1.5,10.232h-4.082
										c-0.055-3.067-0.484-6.115-1.328-9.058L561.276,378.062z"/>
								</g>
								<g>
									<path style="fill:none;stroke:#FFFFFF;stroke-miterlimit:10;" d="M558.688,376.754c-0.284-0.945-0.747-1.819-1.144-2.719
										c-0.374-0.913-0.896-1.75-1.385-2.604"/>
									<path style="fill:none;" d="M556.834,368.71c1.914,2.888,3.428,6.039,4.442,9.352l-3.909,1.174
										c-0.897-2.926-2.235-5.703-3.918-8.247L556.834,368.71z"/>
								</g>
								<g>
									<path style="fill:none;stroke:#FFFFFF;stroke-miterlimit:10;" d="M554.003,368.206c-0.598-0.78-1.273-1.5-1.906-2.253
										c-0.663-0.726-1.409-1.374-2.109-2.064"/>
									<path style="fill:none;" d="M549.78,361.11c2.721,2.152,5.159,4.692,7.054,7.599l-3.386,2.28
										c-1.664-2.564-3.813-4.787-6.192-6.671L549.78,361.11z"/>
								</g>
								<g>
									<path style="fill:none;stroke:#FFFFFF;stroke-miterlimit:10;" d="M546.932,361.501c-0.84-0.511-1.633-1.105-2.512-1.547
										c-0.887-0.425-1.735-0.936-2.653-1.291"/>
									<path style="fill:none;" d="M540.677,356.082c3.317,1.104,6.367,2.897,9.102,5.028l-2.523,3.208
										c-2.393-1.862-5.049-3.433-7.931-4.385L540.677,356.082z"/>
								</g>
								<g>
									<path style="fill:none;stroke:#FFFFFF;stroke-miterlimit:10;" d="M538.099,357.402l-1.425-0.386
										c-0.479-0.109-0.97-0.165-1.454-0.25l-1.458-0.234c-0.486-0.079-0.981-0.067-1.471-0.105"/>
									<path style="fill:none;" d="M530.41,354.31c3.49,0.047,6.969,0.635,10.268,1.772l-1.352,3.851
										c-2.866-0.984-5.88-1.494-8.915-1.542V354.31z"/>
								</g>
								<g>
									<path style="fill:none;stroke:#FFFFFF;stroke-miterlimit:10;" d="M528.413,356.433c-0.987,0.009-1.956,0.195-2.928,0.352
										c-0.483,0.09-0.978,0.129-1.452,0.262l-1.425,0.386"/>
									<path style="fill:none;" d="M520.142,356.082c3.299-1.137,6.778-1.726,10.267-1.772v4.082
										c-3.035,0.047-6.049,0.557-8.915,1.542L520.142,356.082z"/>
								</g>
								<g>
									<path style="fill:none;stroke:#FFFFFF;stroke-miterlimit:10;" d="M518.945,358.705c-0.909,0.376-1.764,0.871-2.648,1.301
										c-0.868,0.462-1.669,1.042-2.507,1.557"/>
									<path style="fill:none;" d="M511.04,361.11c2.735-2.131,5.785-3.923,9.102-5.028l1.352,3.851
										c-2.883,0.952-5.538,2.523-7.931,4.385L511.04,361.11z"/>
								</g>
								<g>
									<path style="fill:none;stroke:#FFFFFF;stroke-miterlimit:10;" d="M510.747,363.969c-0.697,0.694-1.454,1.331-2.101,2.072
										c-0.629,0.756-1.317,1.466-1.898,2.26"/>
									<path style="fill:none;" d="M503.986,368.71c1.895-2.907,4.333-5.447,7.054-7.599l2.523,3.208
										c-2.38,1.884-4.528,4.107-6.192,6.671L503.986,368.71z"/>
								</g>
								<g>
									<path style="fill:none;stroke:#FFFFFF;stroke-miterlimit:10;" d="M504.603,371.532c-0.498,0.849-0.999,1.697-1.375,2.609
										c-0.407,0.896-0.848,1.778-1.134,2.723"/>
									<path style="fill:none;" d="M499.544,378.062c1.014-3.314,2.527-6.465,4.442-9.352l3.385,2.28
										c-1.683,2.544-3.021,5.32-3.918,8.247L499.544,378.062z"/>
								</g>
								<g>
									<path style="fill:none;stroke:#FFFFFF;stroke-miterlimit:10;" d="M500.987,380.581c-0.11,0.479-0.249,0.953-0.334,1.437
										l-0.212,1.461l-0.212,1.461c-0.04,0.49-0.052,0.982-0.079,1.474"/>
									<path style="fill:none;" d="M498.043,388.294c0.054-3.456,0.54-6.903,1.5-10.232l3.909,1.174
										c-0.844,2.942-1.273,5.99-1.328,9.058H498.043z"/>
								</g>
								<g>
									<path style="fill:none;stroke:#FFFFFF;stroke-miterlimit:10;" d="M500.156,390.291c0.032,0.491,0.028,0.985,0.09,1.473
										l0.212,1.461l0.212,1.461l0.345,1.435"/>
									<path style="fill:none;" d="M499.544,398.526c-0.961-3.329-1.446-6.776-1.5-10.232h4.082
										c0.054,3.068,0.484,6.115,1.328,9.058L499.544,398.526z"/>
								</g>
								<g>
									<path style="fill:none;stroke:#FFFFFF;stroke-miterlimit:10;" d="M502.132,399.835c0.284,0.945,0.747,1.819,1.144,2.719
										c0.374,0.913,0.896,1.75,1.385,2.604"/>
									<path style="fill:none;" d="M503.986,407.879c-1.915-2.888-3.428-6.039-4.442-9.352l3.909-1.174
										c0.897,2.926,2.235,5.703,3.918,8.247L503.986,407.879z"/>
								</g>
								<g>
									<path style="fill:none;stroke:#FFFFFF;stroke-miterlimit:10;" d="M506.816,408.382c0.598,0.78,1.273,1.5,1.906,2.253
										c0.663,0.726,1.409,1.374,2.109,2.064"/>
									<path style="fill:none;" d="M511.04,415.478c-2.721-2.152-5.159-4.692-7.054-7.599l3.385-2.28
										c1.664,2.564,3.813,4.787,6.192,6.671L511.04,415.478z"/>
								</g>
								<g>
									<path style="fill:none;stroke:#FFFFFF;stroke-miterlimit:10;" d="M513.888,415.087c0.84,0.511,1.633,1.105,2.512,1.547
										c0.887,0.425,1.735,0.936,2.653,1.291"/>
									<path style="fill:none;" d="M520.142,420.506c-3.317-1.104-6.367-2.897-9.102-5.028l2.523-3.208
										c2.393,1.862,5.049,3.433,7.931,4.385L520.142,420.506z"/>
								</g>
								<g>
									<path style="fill:none;stroke:#FFFFFF;stroke-miterlimit:10;" d="M522.721,419.186l1.425,0.386
										c0.479,0.109,0.97,0.165,1.454,0.25l1.458,0.234c0.486,0.079,0.981,0.067,1.471,0.105"/>
									<path style="fill:none;" d="M530.41,422.278c-3.49-0.047-6.969-0.635-10.267-1.772l1.352-3.851
										c2.866,0.984,5.88,1.494,8.915,1.542V422.278z"/>
								</g>
								<g>
									<path style="fill:none;stroke:#FFFFFF;stroke-miterlimit:10;" d="M532.407,420.155c0.987-0.009,1.956-0.195,2.928-0.352
										c0.483-0.09,0.978-0.129,1.452-0.262l1.425-0.386"/>
									<path style="fill:none;" d="M540.677,420.506c-3.299,1.137-6.778,1.726-10.268,1.772v-4.082
										c3.035-0.047,6.049-0.557,8.915-1.542L540.677,420.506z"/>
								</g>
								<g>
									<path style="fill:none;stroke:#FFFFFF;stroke-miterlimit:10;" d="M541.875,417.883c0.909-0.376,1.764-0.871,2.648-1.301
										c0.868-0.462,1.669-1.042,2.507-1.557"/>
									<path style="fill:none;" d="M549.78,415.478c-2.735,2.131-5.786,3.923-9.102,5.028l-1.352-3.851
										c2.883-0.952,5.538-2.523,7.931-4.385L549.78,415.478z"/>
								</g>
								<g>
									<path style="fill:none;stroke:#FFFFFF;stroke-miterlimit:10;" d="M550.072,412.619c0.697-0.694,1.454-1.331,2.101-2.072
										c0.629-0.756,1.317-1.466,1.898-2.26"/>
									<path style="fill:none;" d="M556.834,407.879c-1.895,2.907-4.333,5.447-7.054,7.599l-2.523-3.208
										c2.379-1.884,4.528-4.107,6.192-6.671L556.834,407.879z"/>
								</g>
								<g>
									<path style="fill:none;stroke:#FFFFFF;stroke-miterlimit:10;" d="M556.217,405.056c0.498-0.849,0.999-1.697,1.375-2.609
										c0.406-0.896,0.848-1.778,1.134-2.723"/>
									<path style="fill:none;" d="M561.276,398.526c-1.014,3.314-2.527,6.465-4.442,9.352l-3.386-2.28
										c1.683-2.544,3.021-5.32,3.918-8.247L561.276,398.526z"/>
								</g>
								<g>
									<path style="fill:none;stroke:#FFFFFF;stroke-miterlimit:10;" d="M559.832,396.008c0.11-0.479,0.249-0.953,0.334-1.437
										l0.212-1.461l0.212-1.461c0.04-0.49,0.052-0.983,0.079-1.474"/>
									<path style="fill:none;" d="M562.776,388.294c-0.054,3.456-0.54,6.903-1.5,10.232l-3.909-1.174
										c0.844-2.942,1.273-5.99,1.328-9.058H562.776z"/>
								</g>
							</g>
						</g>
					</g>
				</g>
			</g>
		</g>
	</g>
	<g>
		<path style="fill:none;stroke:#2C2C2C;stroke-linecap:round;stroke-miterlimit:10;" d="M300.192,185.292
			c0,2.166-1.756,3.921-3.922,3.921c-2.166,0-3.921-1.756-3.921-3.921c0-2.166,1.756-3.921,3.921-3.921
			C298.436,181.37,300.192,183.126,300.192,185.292z"/>
		<path style="fill:none;stroke:#2C2C2C;stroke-linecap:round;stroke-miterlimit:10;" d="M694.994,334.329
			c0,2.166-1.756,3.922-3.922,3.922c-2.166,0-3.921-1.756-3.921-3.922c0-2.166,1.756-3.921,3.921-3.921
			C693.238,330.408,694.994,332.163,694.994,334.329z"/>
		<circle style="fill:none;stroke:#2C2C2C;stroke-linecap:round;stroke-miterlimit:10;" cx="61.297" cy="291.144" r="3.921"/>
		<g>
			
				<line style="fill:none;stroke:#2C2C2C;stroke-linecap:round;stroke-miterlimit:10;" x1="275.386" y1="143.708" x2="275.386" y2="154.223"/>
			
				<line style="fill:none;stroke:#2C2C2C;stroke-linecap:round;stroke-miterlimit:10;" x1="280.569" y1="149.126" x2="270.054" y2="149.126"/>
		</g>
		<g>
			
				<line style="fill:none;stroke:#2C2C2C;stroke-linecap:round;stroke-miterlimit:10;" x1="676.886" y1="379.546" x2="676.886" y2="390.061"/>
			
				<line style="fill:none;stroke:#2C2C2C;stroke-linecap:round;stroke-miterlimit:10;" x1="682.069" y1="384.965" x2="671.554" y2="384.965"/>
		</g>
	</g>
	<g>
		<path style="fill:#DCD9FF;" d="M160.696,127.539h62.956c0,0-4.528-11.57-14.338-9.564c-8.084,1.654-12.673,12.444-24.722,5.059
			C169.477,113.772,160.696,127.539,160.696,127.539z"/>
		<path style="fill:#DCD9FF;" d="M656.248,289.312h43.959c0,0-8.938-10.84-14.365-8.904c-5.427,1.936-4.496,10.915-12.909,5.759
			C662.379,279.698,656.248,289.312,656.248,289.312z"/>
		<path style="fill:#DCD9FF;" d="M625.926,106.581c-5.365,1.187-6.15,6.041-13.219-1.044c-3.927-3.936-10.05-6.393-14.31-5.077
			c-7.838,2.422-9.576,14.59-21.564,7.809c-11.988-6.782-16.243,3.333-16.243,3.333h58.554h14.281
			C633.426,111.601,631.626,105.32,625.926,106.581z"/>
		<path style="fill:#DCD9FF;" d="M86.091,223.488c-4.316,0.696-3.453,3.261-9.078-2.376c-3.125-3.132-7.996-5.087-11.385-4.039
			c-6.236,1.927-8.655,7.542-16.92,3.973c-10.06-4.344-13.16,4.891-13.16,4.891h46.587h11.362
			C93.497,225.937,91.914,222.549,86.091,223.488z"/>
	</g>
	<g>
		<g>
			<defs>
				
					<rect id="SVGID_00000020397082318096001490000010526765229534544031_" x="221.949" y="287.343" width="385.455" height="168.986"/>
			</defs>
			<clipPath id="SVGID_00000019643814028956576730000010649110741306467751_">
				<use xlink:href="#SVGID_00000020397082318096001490000010526765229534544031_"  style="overflow:visible;"/>
			</clipPath>
			<g style="clip-path:url(#SVGID_00000019643814028956576730000010649110741306467751_);">
				<path style="fill:#DCD9FF;" d="M283.816,518.997c0,0,182.623,2.667,181.737,1.781c0,0,27.164-75.253,27.669-125.133
					c-1.792,1.04-4.16,1.668-6.734,1.668c-5.612,0-10.153-2.976-10.153-6.652c0-3.676,4.541-6.652,10.153-6.652
					c2.43,0,4.675,0.556,6.425,1.493c-1.369-17.773-7.332-30.655-21.017-32.756c-4.5-0.69-8.825-0.515-12.964,0.391
					c0.453,0.906,0.793,1.936,0.999,3.048c0.855,4.52-0.855,8.639-3.81,9.195c-2.966,0.556-6.055-2.657-6.899-7.177
					c-0.093-0.484-0.154-0.968-0.185-1.442c-33.785,17.464-52.629,80.679-52.629,80.679s-8.948-48.109-37.317-40.489
					c-4.325,1.164-8.526,3.264-12.583,6.117c1.4,1.802,2.492,4.201,3.007,6.94c1.225,6.467-1.225,12.357-5.458,13.15
					c-3.975,0.752-8.114-3.264-9.618-9.113C303.772,448.264,283.816,518.997,283.816,518.997z M460.343,427.423
					c0-3.419,4.232-6.199,9.463-6.199c5.221,0,9.463,2.78,9.463,6.199s-4.242,6.199-9.463,6.199
					C464.575,433.622,460.343,430.841,460.343,427.423z M437.339,379.211c4.695-0.886,9.597,4.212,10.946,11.389
					c1.349,7.177-1.359,13.706-6.055,14.591c-4.696,0.885-9.597-4.212-10.956-11.389
					C429.925,386.625,432.643,380.096,437.339,379.211z M371.168,467.726c3.687-2.749,8.125-3.017,9.927-0.608
					c1.792,2.41,0.268,6.59-3.419,9.34c-3.686,2.739-8.125,3.017-9.927,0.608C365.958,474.646,367.482,470.465,371.168,467.726z"/>
				<line style="fill:none;stroke:#FFFFFF;stroke-miterlimit:10;" x1="474.398" y1="359.918" x2="417.705" y2="512.18"/>
				<path style="fill:none;stroke:#FFFFFF;stroke-miterlimit:10;" d="M365.872,416.071c-0.54,1.62-21.597,78.83-21.597,78.83"/>
				<line style="fill:none;stroke:#FFFFFF;stroke-miterlimit:10;" x1="371.475" y1="436.266" x2="357.564" y2="446.699"/>
				<line style="fill:none;stroke:#FFFFFF;stroke-miterlimit:10;" x1="454.879" y1="377.939" x2="461.225" y2="394.783"/>
				<line style="fill:none;stroke:#FFFFFF;stroke-miterlimit:10;" x1="457.41" y1="445.869" x2="439.955" y2="457.272"/>
			</g>
		</g>
		<g>
			<path style="fill:#DCD9FF;" d="M172.964,378.784l7.435,78.354h-36.012l-16.762-70.875c-2.968-12.499,4.874-24.997,17.417-27.791
				c1.688-0.378,3.376-0.553,5.02-0.553C161.643,357.918,171.814,366.707,172.964,378.784z"/>
			
				<line style="fill:#F9CB00;stroke:#2C2C2C;stroke-linecap:round;stroke-miterlimit:10;" x1="162.056" y1="456.716" x2="149.854" y2="380.98"/>
			
				<line style="fill:#F9CB00;stroke:#2C2C2C;stroke-linecap:round;stroke-miterlimit:10;" x1="161.544" y1="394.988" x2="154.647" y2="408.189"/>
			
				<line style="fill:#F9CB00;stroke:#2C2C2C;stroke-linecap:round;stroke-miterlimit:10;" x1="145.19" y1="423.558" x2="158.194" y2="433.41"/>
		</g>
		<g>
			<path style="fill:#DCD9FF;" d="M553.349,430.114c0,2.683-0.722,5.4-2.242,7.863l-11.378,18.46h-25.193l9.425-30.746
				c2.743-8.941,12.915-13.229,21.236-8.95C550.403,419.423,553.349,424.688,553.349,430.114z"/>
			
				<line style="fill:#F9CB00;stroke:#2C2C2C;stroke-linecap:round;stroke-miterlimit:10;" x1="527.111" y1="456.403" x2="537.932" y2="430.649"/>
			<path style="fill:#F9CB00;stroke:#2C2C2C;stroke-linecap:round;stroke-miterlimit:10;" d="M529.189,435.798
				c0.103,0.31,2.275,8.995,2.275,8.995"/>
		</g>
		<g>
			<path style="fill:#DCD9FF;" d="M93.091,430.114c0,2.683,0.722,5.4,2.242,7.863l11.378,18.46h25.193l-9.425-30.746
				c-2.743-8.941-12.915-13.229-21.236-8.95C96.037,419.423,93.091,424.688,93.091,430.114z"/>
			
				<line style="fill:#F9CB00;stroke:#2C2C2C;stroke-linecap:round;stroke-miterlimit:10;" x1="119.329" y1="456.403" x2="108.508" y2="430.649"/>
			<path style="fill:#F9CB00;stroke:#2C2C2C;stroke-linecap:round;stroke-miterlimit:10;" d="M117.251,435.798
				c-0.103,0.31-2.275,8.995-2.275,8.995"/>
		</g>
		<g>
			<path style="fill:#DCD9FF;" d="M555.185,437.804c0,1.899,0.511,3.823,1.587,5.566l8.054,13.067h17.833l-6.672-21.764
				c-1.941-6.329-9.142-9.364-15.032-6.335C557.271,430.237,555.185,433.963,555.185,437.804z"/>
			
				<line style="fill:#F9CB00;stroke:#2C2C2C;stroke-linecap:round;stroke-miterlimit:10;" x1="573.758" y1="456.413" x2="566.098" y2="438.183"/>
			<path style="fill:#F9CB00;stroke:#2C2C2C;stroke-linecap:round;stroke-miterlimit:10;" d="M572.287,441.827
				c-0.073,0.22-1.61,6.367-1.61,6.367"/>
		</g>
		<g>
			<path style="fill:#BBB5FF;" d="M618.04,456.65h42.804c0.439-1.057,0.811-2.156,1.129-3.286c1.82-6.535,1.285-13.101-1.063-18.561
				l-6.848,1.424l3.958-6.421c-2.745-3.64-6.505-6.367-11.022-7.623c-7.617-2.12-15.564,0.439-21.372,6.073l5.058,11.9l-9.605-6.115
				c-1.273,2.156-2.301,4.535-3.015,7.1C616.575,446.499,616.659,451.875,618.04,456.65z"/>
			<g>
				<defs>
					<path id="SVGID_00000014618534576702966280000008934905416733938079_" d="M618.04,456.682h42.804
						c0.439-1.057,0.811-2.156,1.129-3.286c1.82-6.535,1.285-13.101-1.063-18.561l-6.848,1.424l3.958-6.421
						c-2.745-3.64-6.505-6.367-11.022-7.623c-7.617-2.12-15.564,0.439-21.372,6.073l5.058,11.899l-9.605-6.115
						c-1.273,2.156-2.301,4.535-3.015,7.1C616.575,446.53,616.659,451.907,618.04,456.682z"/>
				</defs>
				<clipPath id="SVGID_00000183207750997090640540000013793631632560688815_">
					<use xlink:href="#SVGID_00000014618534576702966280000008934905416733938079_"  style="overflow:visible;"/>
				</clipPath>
				
					<line style="clip-path:url(#SVGID_00000183207750997090640540000013793631632560688815_);fill:#F9CB00;stroke:#2C2C2C;stroke-linecap:round;stroke-miterlimit:10;" x1="649.593" y1="419.809" x2="635.192" y2="457.027"/>
				
					<line style="clip-path:url(#SVGID_00000183207750997090640540000013793631632560688815_);fill:#F9CB00;stroke:#2C2C2C;stroke-linecap:round;stroke-miterlimit:10;" x1="664.27" y1="444.938" x2="654.428" y2="446.513"/>
				
					<line style="clip-path:url(#SVGID_00000183207750997090640540000013793631632560688815_);fill:#F9CB00;stroke:#2C2C2C;stroke-linecap:round;stroke-miterlimit:10;" x1="631.988" y1="421.448" x2="633.956" y2="428.797"/>
			</g>
		</g>
		<g>
			<path style="fill:#BBB5FF;" d="M196.889,456.611h95.591c0.979-2.361,1.811-4.816,2.522-7.338
				c4.065-14.595,2.871-29.257-2.374-41.451l-15.293,3.179l8.84-14.34c-6.13-8.129-14.528-14.219-24.616-17.023
				c-17.009-4.735-34.757,0.979-47.729,13.562l11.295,26.574l-21.45-13.656c-2.844,4.816-5.138,10.128-6.734,15.856
				C193.616,433.941,193.804,445.947,196.889,456.611z"/>
			<g>
				<defs>
					<path id="SVGID_00000148634871599063714960000005766625374215969161_" d="M196.889,456.682h95.591
						c0.979-2.361,1.811-4.816,2.522-7.338c4.065-14.595,2.871-29.257-2.374-41.451l-15.293,3.179l8.84-14.34
						c-6.13-8.129-14.528-14.219-24.616-17.023c-17.009-4.735-34.757,0.979-47.729,13.562l11.295,26.574l-21.45-13.656
						c-2.844,4.816-5.138,10.128-6.734,15.856C193.616,434.012,193.804,446.017,196.889,456.682z"/>
				</defs>
				<clipPath id="SVGID_00000021110012087544731990000007301303825093117350_">
					<use xlink:href="#SVGID_00000148634871599063714960000005766625374215969161_"  style="overflow:visible;"/>
				</clipPath>
				
					<line style="clip-path:url(#SVGID_00000021110012087544731990000007301303825093117350_);fill:#F9CB00;stroke:#2C2C2C;stroke-linecap:round;stroke-miterlimit:10;" x1="267.353" y1="374.335" x2="235.193" y2="457.452"/>
				
					<line style="clip-path:url(#SVGID_00000021110012087544731990000007301303825093117350_);fill:#F9CB00;stroke:#2C2C2C;stroke-linecap:round;stroke-miterlimit:10;" x1="300.13" y1="421.24" x2="260.357" y2="427.517"/>
				
					<line style="clip-path:url(#SVGID_00000021110012087544731990000007301303825093117350_);fill:#F9CB00;stroke:#2C2C2C;stroke-linecap:round;stroke-miterlimit:10;" x1="228.037" y1="377.997" x2="232.433" y2="394.409"/>
			</g>
		</g>
	</g>
	<g>
		<g>
			<g>
				<path style="fill:#BBB5FF;" d="M142.252,119.196c0-21.39-17.146-38.729-38.296-38.729s-38.296,17.34-38.296,38.729
					c0,6.978,1.834,13.518,5.027,19.172l-0.21,0.001l21.788,37.951h23.382l21.958-38.41l-0.12,0.001
					C140.52,132.363,142.252,125.985,142.252,119.196z"/>
				<polyline style="fill:none;stroke:#2C2C2C;stroke-linecap:round;stroke-miterlimit:10;" points="92.803,176.32 99.501,189.736 
					108.03,189.736 115.053,176.327 				"/>
				<path style="fill:#EF5B00;" d="M103.763,198.889L103.763,198.889c-2.684,0-4.86-2.176-4.86-4.86v-4.672h9.72v4.672
					C108.623,196.713,106.447,198.889,103.763,198.889z"/>
			</g>
			<path style="fill:none;stroke:#FFFFFF;stroke-linecap:round;stroke-miterlimit:10;" d="M109.393,176.32l9.536-38.41l-0.052,0.001
				c1.318-5.548,2.07-11.926,2.07-18.716c0-21.39-7.446-38.729-16.631-38.729c-9.185,0-16.631,17.34-16.631,38.729
				c0,6.978,0.796,13.518,2.183,19.172l-0.091,0.001l9.462,37.951"/>
		</g>
		<g>
			<g>
				<path style="fill:#BBB5FF;" d="M690.84,199.097c0-15.688-12.576-28.406-28.088-28.406s-28.088,12.718-28.088,28.406
					c0,5.118,1.345,9.915,3.687,14.062l-0.154,0.001l15.981,27.835h17.149l16.105-28.172l-0.088,0.001
					C689.57,208.755,690.84,204.077,690.84,199.097z"/>
				<polyline style="fill:none;stroke:#2C2C2C;stroke-linecap:round;stroke-miterlimit:10;" points="654.571,240.996 
					659.484,250.836 665.739,250.836 670.891,241.001 				"/>
				<path style="fill:#EF5B00;" d="M662.61,257.549L662.61,257.549c-1.969,0-3.565-1.596-3.565-3.565v-3.427h7.129v3.427
					C666.174,255.953,664.578,257.549,662.61,257.549z"/>
			</g>
			<path style="fill:none;stroke:#FFFFFF;stroke-linecap:round;stroke-miterlimit:10;" d="M666.74,240.996l6.994-28.172
				l-0.038,0.001c0.967-4.07,1.518-8.748,1.518-13.727c0-15.688-5.461-28.406-12.198-28.406c-6.737,0-12.198,12.718-12.198,28.406
				c0,5.118,0.584,9.915,1.601,14.062l-0.067,0.001l6.94,27.835"/>
		</g>
	</g>
	
		<line style="fill:#F9CB00;stroke:#2C2C2C;stroke-linecap:round;stroke-miterlimit:10;" x1="45.532" y1="478.774" x2="647.225" y2="478.774"/>
	
		<line style="fill:#F9CB00;stroke:#2C2C2C;stroke-linecap:round;stroke-miterlimit:10;" x1="28.252" y1="456.908" x2="728.359" y2="456.908"/>
	<g>
		<g>
			<path style="fill:#F9CB00;" d="M404.441,167.673l-41.029-0.428c-13.894-0.145-25.451,10.653-26.249,24.525l0,0h0
				c-9.604-0.049-17.448,7.661-17.563,17.265l-1.04,87.195c-0.153,12.788,10.602,23.006,23.366,22.199l90.117-5.699l-1.855-119.441
				C429.968,179.182,418.548,167.82,404.441,167.673z"/>
			<path style="fill:#FFFFFF;" d="M319.3,233.33L319.3,233.33c-3.629,0-6.57,2.941-6.57,6.57v10.512h13.14V239.9
				C325.87,236.271,322.929,233.33,319.3,233.33z"/>
			<rect x="316.028" y="229.728" style="fill:#FFFFFF;" width="6.627" height="5.619"/>
			<rect x="314.316" y="225.782" style="fill:#EF5B00;" width="10.14" height="5.091"/>
			<path style="fill:#5A44EB;" d="M310.612,244.732v29.909c0,4.841,3.839,8.81,8.678,8.972l0,0c5.124,0.171,9.349-3.977,9.275-9.102
				l0.117-25.53l0.02-4.249H310.612z"/>
			
				<line style="fill:#F9CB00;stroke:#2C2C2C;stroke-linecap:round;stroke-miterlimit:10;" x1="330.326" y1="248.705" x2="311.035" y2="248.705"/>
			<path style="fill:#F9CB00;stroke:#2C2C2C;stroke-linecap:round;stroke-miterlimit:10;" d="M337.163,191.77
				c0,0,9.623,10.304,30.763,7.926"/>
			<path style="fill:#F9CB00;stroke:#2C2C2C;stroke-linecap:round;stroke-miterlimit:10;" d="M363.059,209.401l-17.047-0.559
				c-3.036-0.1-5.551,2.334-5.551,5.372l-0.005,77.534c0,3.241,2.489,5.939,5.719,6.199l9.585,0.773"/>
			<path style="fill:none;stroke:#FFFFFF;stroke-miterlimit:10;" d="M341.184,195.649l-6.262,2.588
				c-4.415,1.825-7.295,6.131-7.295,10.909v7.47"/>
			<g>
				<defs>
					<path id="SVGID_00000010271962130226306730000017279154707369148043_" d="M404.418,167.667l-41.029-0.428
						c-13.894-0.145-25.451,10.653-26.249,24.525l0,0l0,0c-9.604-0.049-17.448,7.661-17.563,17.265l-1.04,87.195
						c-0.153,12.788,10.602,23.006,23.366,22.199l90.117-5.699l-1.855-119.441C429.946,179.176,418.526,167.814,404.418,167.667z"/>
				</defs>
				<clipPath id="SVGID_00000023279901059189122650000006792007196113014425_">
					<use xlink:href="#SVGID_00000010271962130226306730000017279154707369148043_"  style="overflow:visible;"/>
				</clipPath>
				
					<ellipse style="clip-path:url(#SVGID_00000023279901059189122650000006792007196113014425_);fill:none;stroke:#FFFFFF;stroke-miterlimit:10;" cx="383.195" cy="166.711" rx="29.368" ry="12.976"/>
			</g>
		</g>
		<path style="fill:#F49377;" d="M445.739,479.193l-58.367-0.201c0,0,0.293-6.461,0.651-13.98
			c0.493-10.262,1.117-22.497,1.301-23.004l28.359-7.181c0,0-1.856,12.984-2.009,18.311c-0.035,1.224,0.672,2.667,1.892,4.207
			c4.098,5.173,13.99,11.384,21.002,13.643C447.672,473.914,445.739,479.193,445.739,479.193z"/>
		<path style="fill:#F49377;" d="M312.903,414.007c-0.813,0.464-25.359,26.992-25.359,26.992l44.462,37.819
			c0,0,4.88-2.787-0.183-10.898s-9.531-24.436-5.974-28.408c3.556-3.972,13.353-12.694,13.353-12.694L312.903,414.007z"/>
		<path style="fill:#5A44EB;" d="M399.22,297.522v71.373l-60.913,74.449l-35.687-25.227l47.992-60.913l3.692-82.448l81.833-3.692
			l2.806,96.542c0.179,6.159-0.531,12.311-2.109,18.267l-16.694,63.008l-35.686-1.23l6.768-92.293L399.22,297.522z"/>
		<path style="fill:none;stroke:#2C2C2C;stroke-linecap:round;stroke-miterlimit:10;" d="M408.381,291.085l-7.192,16.368
			l0.026,47.142c0.24,5.899-1.414,11.72-4.719,16.612l-7.276,10.768"/>
		<path style="fill:none;stroke:#2C2C2C;stroke-linecap:round;stroke-miterlimit:10;" d="M370.732,278.424l-4.408,78.849
			c-0.081,1.44-0.602,2.821-1.493,3.955l-50.49,64.215"/>
		<path style="fill:#312983;" d="M332.724,479.997l-46.362-39.868c0,0,3.607-3.856,8.168-8.713c1.032-1.099,2.757-1.172,3.875-0.16
			l16.112,14.582c2.9-2.096,5.755-2.704,8.146-2.673c1.342,0.017,2.433,1.089,2.516,2.429c0.434,6.989,3.764,17.065,7.414,22.988
			C337.855,477.107,332.724,479.997,332.724,479.997z"/>
		
			<line style="fill:none;stroke:#FFFFFF;stroke-linecap:round;stroke-miterlimit:10;" x1="289.556" y1="437.081" x2="334.785" y2="477.065"/>
		<path style="fill:#312983;" d="M448.532,479.352l-62.854-0.252c0,0,0.249-5.422,0.576-12.263c0.074-1.548,1.375-2.755,2.924-2.71
			l22.329,0.656c0.869-3.574,2.697-5.954,4.587-7.525c1.061-0.882,2.63-0.771,3.588,0.221c5.002,5.177,14.327,10.835,21.134,13.032
			C450.617,473.668,448.532,479.352,448.532,479.352z"/>
		
			<line style="fill:none;stroke:#FFFFFF;stroke-linecap:round;stroke-miterlimit:10;" x1="386.142" y1="474.585" x2="448.002" y2="475.985"/>
		<path style="fill:none;stroke:#FFFFFF;stroke-linecap:round;stroke-miterlimit:10;" d="M417.319,464.623
			c0,0,1.925-3.766,4.381-5.003"/>
		<path style="fill:none;stroke:#FFFFFF;stroke-linecap:round;stroke-miterlimit:10;" d="M422.449,467.879
			c0,0,1.925-3.766,4.381-5.003"/>
		<path style="fill:#F49377;" d="M496.028,253.57l-10.999,19.936c-3.555,6.444-11.325,9.27-18.19,6.616l-8.18-3.163l26.884-23.927
			L496.028,253.57z"/>
		<path style="fill:#282077;" d="M419.433,238.13l37.106-18.674l-6.912-17.824c-4.332-9.87-15.808-14.406-25.718-10.166l0,0
			c-9.113,3.899-13.894,13.976-11.15,23.501L419.433,238.13z"/>
		<path style="fill:#282077;" d="M437.124,284.464l-83.26,1.055l-0.264-48.896l2.103-20.092
			c1.632-15.588,14.839-27.385,30.512-27.253l7.531,0.063l22.422,0.292l15.671,0.205L437.124,284.464z"/>
		<path style="fill:#F49377;" d="M419.736,189.633c-0.461,5.782-5.301,10.327-11.201,10.327c-5.998,0-10.902-4.703-11.221-10.618
			L419.736,189.633z"/>
		<g>
			<path style="fill:#2C2C2C;" d="M398.537,169.701l-2.303-6.828c-2.164-6.416,2.531-13.085,9.301-13.211l18.354-0.342
				c3.115-0.058,5.671,2.451,5.671,5.566l0,0c0,3.075-2.492,5.567-5.567,5.567H403.22v8.78
				C403.22,169.233,398.654,169.701,398.537,169.701z"/>
			<rect x="401.418" y="176.487" style="fill:#F49377;" width="14.249" height="18.845"/>
			<path style="fill:#F49377;" d="M412.018,184.7L412.018,184.7c-6.026,0-10.912-4.885-10.912-10.912v-13.337h21.824v13.337
				C422.93,179.814,418.045,184.7,412.018,184.7z"/>
			<path style="fill:#F49377;" d="M394.566,172.473c0,2.534,2.054,4.588,4.588,4.588c2.534,0,4.588-2.054,4.588-4.588
				c0-2.534-2.054-4.588-4.588-4.588C396.62,167.885,394.566,169.939,394.566,172.473z"/>
			<path style="fill:none;stroke:#2C2C2C;stroke-linecap:round;stroke-miterlimit:10;" d="M409.886,183.083
				c0,0,1.702,1.531,5.616,1.021"/>
			<path style="fill:#2C2C2C;" d="M408.491,161.084c0,2.552-2.069,4.622-4.622,4.622c-2.552,0-4.622-2.069-4.622-4.622
				c0-2.552,2.069-4.622,4.622-4.622C406.422,156.463,408.491,158.532,408.491,161.084z"/>
			<polygon style="fill:#2C2C2C;" points="403.241,170.668 401.047,170.668 401.047,161.736 404.273,161.736 			"/>
			<path style="fill:none;stroke:#2C2C2C;stroke-linecap:round;stroke-miterlimit:10;" d="M397.313,173.896
				c-0.158-0.305-0.248-0.651-0.248-1.019c0-1.222,0.99-2.212,2.212-2.212c0.112,0,0.221,0.008,0.328,0.024"/>
			<ellipse style="fill:#2C2C2C;" cx="411.404" cy="169.258" rx="0.873" ry="1.416"/>
			<ellipse style="fill:#2C2C2C;" cx="419.898" cy="169.258" rx="0.873" ry="1.416"/>
			<path style="fill:#2C2C2C;" d="M412.882,165.234c0.085,0.559-0.63,0.518-1.708,0.682c-1.078,0.164-2.109,0.471-2.194-0.088
				c-0.085-0.559,0.72-1.146,1.797-1.309S412.797,164.675,412.882,165.234z"/>
			<path style="fill:#2C2C2C;" d="M422.156,165.643c-0.054,0.563-0.738,0.349-1.823,0.246c-1.085-0.103-2.16-0.057-2.107-0.62
				c0.054-0.563,0.977-0.936,2.062-0.833C421.373,164.539,422.209,165.079,422.156,165.643z"/>
			<path style="fill:none;stroke:#2C2C2C;stroke-linecap:round;stroke-miterlimit:10;" d="M416.774,168.15l0.674,5.35
				c0.08,0.634-0.406,1.197-1.045,1.212c-0.614,0.014-1.223,0.028-1.167,0.028"/>
			<path style="fill:none;stroke:#2C2C2C;stroke-linecap:round;stroke-miterlimit:10;" d="M410.673,176.864
				c0,0,0.54,1.622,2.162,2.095"/>
		</g>
		<path style="fill:#EF5B00;" d="M386.085,188.284c-1.286,0.027-2.182,1.312-1.782,2.563c2.064,6.469,6.563,24.476-0.178,42.475
			c-7.74,20.669-28.899,37.567-32.268,40.162c-0.288,0.222-0.449,0.569-0.439,0.939l0.23,8.934c0.023,0.897,0.999,1.416,1.731,0.923
			c6.245-4.202,28.239-20.067,37.344-40.712c12.696-28.787,5.555-49.248,3.393-54.253c-0.312-0.723-1.016-1.177-1.788-1.161
			L386.085,188.284z"/>
		<path style="fill:#EF5B00;" d="M424.097,187.872c-0.974-0.004-1.679,0.927-1.402,1.861c1.725,5.799,6.072,24.173-1.59,42.079
			c-9.256,21.632-32.16,37.693-32.16,37.693l-0.136,11.287c0,0,26.94-15.517,38.504-38.724c14.105-28.305,6.256-48.985,4.289-53.321
			c-0.235-0.518-0.747-0.845-1.316-0.847L424.097,187.872z"/>
		<g>
			<polygon style="fill:#FFFFFF;" points="408.017,211.338 372.598,296.006 400.259,288.922 424.657,304.775 444.785,291.284 
				468.839,296.582 501.299,210.201 478.42,204.854 458.124,215.268 433.185,201.985 			"/>
			
				<line style="fill:#F9CB00;stroke:#2C2C2C;stroke-linecap:round;stroke-miterlimit:10;" x1="433.298" y1="202.247" x2="400.14" y2="288.528"/>
			
				<line style="fill:#F9CB00;stroke:#2C2C2C;stroke-linecap:round;stroke-miterlimit:10;" x1="457.927" y1="215.466" x2="424.657" y2="304.452"/>
			
				<line style="fill:#F9CB00;stroke:#2C2C2C;stroke-linecap:round;stroke-miterlimit:10;" x1="478.42" y1="205.22" x2="445.166" y2="291.21"/>
		</g>
		<g>
			<g>
				<path style="fill:#F49377;" d="M470.892,242.982c-0.816,1.366-0.401,3.114,0.924,3.906c0.156,0.093,0.316,0.17,0.481,0.223
					c0.067,0.026,0.136,0.049,0.206,0.063c1.189,0.329,2.51-0.185,3.19-1.324c0.816-1.366,0.401-3.114-0.924-3.906
					c-0.639-0.382-1.378-0.474-2.056-0.306c-0.142,0.03-0.283,0.074-0.414,0.133C471.736,241.999,471.232,242.414,470.892,242.982z"
					/>
				<path style="fill:#F49377;" d="M501.125,245.75l-10.709,17.669c-2.388-1.424-5.091-3.929-6.254-8.236l-5.587-0.595
					c-1.631-0.18-2.884-1.514-2.965-3.145c-0.55-0.009-1.072-0.162-1.514-0.424c-0.811-0.487-1.379-1.334-1.46-2.325l-0.135-1.523
					l-0.009-0.108c-0.072,0.018-0.135,0.036-0.198,0.045c-0.162-0.054-0.324-0.126-0.478-0.225
					c-1.325-0.793-1.739-2.532-0.928-3.902c0.342-0.568,0.847-0.982,1.406-1.208l0.424-0.09l-0.009-0.045l-0.162-1.595
					c-0.126-1.208,0.559-2.352,1.676-2.802l12.823-5.172c0.721-0.297,1.496-0.451,2.271-0.46l3.442-0.027
					c3.046-0.027,5.929,1.37,7.785,3.785l0,0C502.864,238.377,503.094,242.502,501.125,245.75z"/>
				
					<line style="fill:#F9CB00;stroke:#2C2C2C;stroke-linecap:round;stroke-miterlimit:10;" x1="487.364" y1="237.689" x2="472.717" y2="241.688"/>
				
					<line style="fill:#F9CB00;stroke:#2C2C2C;stroke-linecap:round;stroke-miterlimit:10;" x1="488.724" y1="243.082" x2="472.746" y2="247.343"/>
				
					<line style="fill:#F9CB00;stroke:#2C2C2C;stroke-linecap:round;stroke-miterlimit:10;" x1="486.764" y1="249.312" x2="475.33" y2="251.471"/>
			</g>
			<path style="fill:none;stroke:#2C2C2C;stroke-linecap:round;stroke-miterlimit:10;" d="M484.162,255.183
				c0,0,2.811,0.381,5.159-0.26"/>
		</g>
		<g>
			<path style="fill:#F49377;" d="M361.775,201.748l-35.44,40.183c-7.216,8.335-7.172,21.179,0.43,29.682l0,0
				c7.339,8.208,19.538,9.905,28.838,4.01l31.538-19.988l-7.68-21.473L361.775,201.748z"/>
			<polygon style="fill:#282077;" points="363.33,199.07 346.069,218.779 366.827,238.713 384.125,232.288 			"/>
			<g>
				<path style="fill:#F49377;" d="M418.971,248.816c0,1.591-1.252,2.879-2.796,2.879c-0.181,0-0.358-0.016-0.528-0.055
					c-0.071-0.012-0.142-0.028-0.209-0.051c-1.189-0.327-2.06-1.445-2.06-2.773c0-1.591,1.252-2.879,2.796-2.879
					c0.744,0,1.426,0.299,1.922,0.792c0.106,0.098,0.205,0.209,0.288,0.327C418.751,247.54,418.971,248.155,418.971,248.816z"/>
				<path style="fill:#F49377;" d="M418.097,246.729l-0.028,0.039l0.315,0.288c0.366,0.484,0.587,1.099,0.587,1.76
					c0,1.591-1.252,2.879-2.796,2.879c-0.181,0-0.358-0.016-0.528-0.055c-0.047-0.043-0.094-0.091-0.142-0.142l-0.067,0.091
					l-0.89,1.237c-0.587,0.811-1.508,1.249-2.45,1.249c-0.516,0-1.04-0.134-1.516-0.41c-0.906,1.359-2.67,1.859-4.155,1.174
					l-5.104-2.355c-6.302,6.105-14.183,3.151-14.183,3.151l-7.68-21.473l17.956-7.089c2.836-1.118,6.026-0.843,8.629,0.744
					l2.938,1.792c0.666,0.406,1.253,0.933,1.721,1.556l8.35,11.016c0.729,0.965,0.733,2.296,0.008,3.265L418.097,246.729z"/>
				
					<line style="fill:#F9CB00;stroke:#2C2C2C;stroke-linecap:round;stroke-miterlimit:10;" x1="407.545" y1="235.825" x2="418.068" y2="246.769"/>
				
					<line style="fill:#F9CB00;stroke:#2C2C2C;stroke-linecap:round;stroke-miterlimit:10;" x1="403.612" y1="239.758" x2="415.144" y2="251.61"/>
				
					<line style="fill:#F9CB00;stroke:#2C2C2C;stroke-linecap:round;stroke-miterlimit:10;" x1="402.099" y1="246.111" x2="410.808" y2="253.828"/>
			</g>
			
				<line style="fill:#F9CB00;stroke:#2C2C2C;stroke-linecap:round;stroke-miterlimit:10;" x1="366.706" y1="238.477" x2="348.978" y2="246.376"/>
		</g>
		<path style="fill:none;stroke:#FFFFFF;stroke-miterlimit:10;" d="M414.698,169.31c0,2.224-1.803,4.026-4.026,4.026
			c-2.224,0-4.026-1.803-4.026-4.026c0-2.224,1.803-4.026,4.026-4.026C412.895,165.284,414.698,167.087,414.698,169.31z"/>
		<path style="fill:none;stroke:#FFFFFF;stroke-miterlimit:10;" d="M426.273,169.436c0,2.224-1.803,4.026-4.026,4.026
			c-2.224,0-4.026-1.803-4.026-4.026c0-2.224,1.803-4.026,4.026-4.026C424.47,165.41,426.273,167.212,426.273,169.436z"/>
		<path style="fill:none;stroke:#FFFFFF;stroke-linecap:round;stroke-miterlimit:10;" d="M397.408,167.769
			c0,0,4.202-0.977,9.237,1.541"/>
		<path style="fill:none;stroke:#FFFFFF;stroke-linecap:round;stroke-miterlimit:10;" d="M318.921,449.39
			c0,0,3.803-1.572,6.401-0.937"/>
		<path style="fill:none;stroke:#FFFFFF;stroke-linecap:round;stroke-miterlimit:10;" d="M320.617,453.863
			c0,0,3.803-1.572,6.401-0.937"/>
	</g>
	<g>
		<path style="fill:#F49377;" d="M624.345,331.617l10.263,10.502c0.694,0.71,1.781,0.86,2.641,0.364l0,0
			c1.084-0.625,1.417-2.034,0.729-3.079l-2.324-3.529c0,0,4.923,0.931,6.254,2.262c0.981,0.981,4.313,6.745,5.998,9.708
			c0.584,1.027,1.803,1.501,2.93,1.145l0,0c1.231-0.389,1.967-1.644,1.698-2.907c-0.927-4.351-3.071-13.748-4.714-15.883
			c-2.156-2.802-13.797-11.21-13.797-11.21L624.345,331.617z"/>
		<path style="fill:#EF5B00;" d="M592,252.795L592,252.795c4.612,0.365,8.65,3.237,10.509,7.474l15.024,34.247l19.434,18.899
			c2.959,2.877,2.897,7.648-0.136,10.447l-10.066,9.292c-3.112,2.873-8.021,2.45-10.595-0.914l-22.783-29.763l-9.779-47.291
			L592,252.795z"/>
		<line style="fill:none;stroke:#FFFFFF;stroke-miterlimit:10;" x1="626.766" y1="333.153" x2="596.87" y2="297.956"/>
		<path style="fill:#312983;" d="M567.138,240.994h-21.761c-2.938,0-5.505,1.986-6.244,4.829l-16.366,63.02
			c-1.161,4.471,2.214,8.835,6.834,8.835h11.38L567.138,240.994z"/>
		<path style="fill:none;stroke:#FFFFFF;stroke-miterlimit:10;" d="M554.137,243.892l-8.486,0.138
			c-2.02,0.033-3.771,1.41-4.278,3.365l-3.432,13.219"/>
		<g>
			<path style="fill:#5A44EB;" d="M588.082,357.401l4.592,21.535c0.47,2.205,2.736,3.528,4.887,2.853l7.201-2.26
				c2.169-0.68,3.386-2.979,2.731-5.155l-6.301-20.94L588.082,357.401z"/>
			<polygon style="fill:#F9CB00;" points="588.082,357.401 587.048,352.652 599.774,348.751 601.193,353.434 			"/>
		</g>
		<path style="fill:#F9CB00;" d="M567.53,244.247h-5.372c-3.231,0-5.849,2.928-5.849,6.539v4.695h27.3v-3.087
			c0-3.272-2.164-6.041-5.064-6.48L567.53,244.247z"/>
		<g>
			<path style="fill:#F49377;" d="M500.423,422.261c-0.739,0.151-26.196,14.287-26.196,14.287l24.527,40.124
				c0,0,4.436-0.906,2.6-8.388c-1.837-7.481-1.153-21.1,2.567-23.247c3.721-2.147,13.412-6.361,13.412-6.361L500.423,422.261z"/>
			<g>
				<path style="fill:#F9CB00;" d="M499.008,477.755l-25.467-42.17c0,0,8.772-4.82,13.485-7.391
					c1.066-0.582,2.405-0.204,3.006,0.852l3.625,17.987c2.747-0.876,5.085-0.623,6.907,0.001c1.023,0.35,1.589,1.445,1.316,2.491
					c-1.425,5.459-1.408,14.008-0.103,19.46C503.662,476.833,499.008,477.755,499.008,477.755z"/>
				
					<line style="fill:none;stroke:#2C2C2C;stroke-linecap:round;stroke-miterlimit:10;" x1="476.752" y1="434.054" x2="501.045" y2="476.027"/>
				<path style="fill:none;stroke:#2C2C2C;stroke-linecap:round;stroke-miterlimit:10;" d="M496.135,450.858
					c0,0,3.306-0.247,5.135,0.891"/>
			</g>
		</g>
		<g>
			<path style="fill:#F49377;" d="M625.557,478.1l-47.024-0.162c0,0,0.236-5.206,0.524-11.264c0.397-8.267,0.9-18.125,1.049-18.534
				l22.848-5.786c0,0-1.495,10.461-1.619,14.753c-0.028,0.987,0.541,2.149,1.524,3.39c3.302,4.168,11.272,9.172,16.92,10.992
				C627.115,473.847,625.557,478.1,625.557,478.1z"/>
			<g>
				<path style="fill:#F9CB00;" d="M627.807,478.228l-50.639-0.203c0,0,0.293-10.446,0.556-15.958
					c0.06-1.247,1.107-2.22,2.356-2.183l17.897,6.607c0.7-2.879,2.173-4.797,3.695-6.062c0.854-0.71,2.119-0.621,2.891,0.178
					c4.03,4.171,11.543,8.729,17.027,10.5C629.487,473.649,627.807,478.228,627.807,478.228z"/>
				
					<line style="fill:none;stroke:#2C2C2C;stroke-linecap:round;stroke-miterlimit:10;" x1="577.542" y1="474.387" x2="627.38" y2="475.515"/>
				<path style="fill:none;stroke:#2C2C2C;stroke-linecap:round;stroke-miterlimit:10;" d="M602.66,466.361
					c0,0,1.551-3.034,3.529-4.031"/>
			</g>
		</g>
		<g>
			<path style="fill:#2C2C2C;" d="M588.713,218.335v0.076c0,1.081-0.357,2.075-0.951,2.885c-0.141,0.195-0.292,0.378-0.465,0.551
				c-0.886,0.875-2.096,1.416-3.426,1.416h-18.089v7.64c0,0-0.119,0.011-0.324,0.043c-0.951,0.086-3.674,0.367-3.75,0.367
				l-0.281-0.821l-1.729-5.122c-0.475-1.416-0.573-2.842-0.346-4.182c0.648-3.977,4.042-7.24,8.45-7.316l10.698-0.205
				c0.962,1.351,1.61,2.939,1.848,4.668H588.713z"/>
			<rect x="565.728" y="237.221" style="fill:#F49377;" width="12.405" height="16.406"/>
			<path style="fill:#F49377;" d="M574.957,244.371L574.957,244.371c-5.247,0-9.5-4.253-9.5-9.5V223.26h19v11.611
				C584.457,240.118,580.204,244.371,574.957,244.371z"/>
			<path style="fill:#F49377;" d="M559.764,233.726c0,2.206,1.788,3.994,3.994,3.994c2.206,0,3.994-1.788,3.994-3.994
				c0-2.206-1.788-3.994-3.994-3.994C561.552,229.732,559.764,231.52,559.764,233.726z"/>
			<path style="fill:none;stroke:#2C2C2C;stroke-linecap:round;stroke-miterlimit:10;" d="M573.101,242.964
				c0,0,1.482,1.333,4.889,0.889"/>
			<path style="fill:#2C2C2C;" d="M570.109,226.066c0,2.222-1.801,4.023-4.023,4.023c-2.222,0-4.024-1.801-4.024-4.023
				c0-2.222,1.801-4.024,4.024-4.024C568.308,222.043,570.109,223.844,570.109,226.066z"/>
			<path style="fill:none;stroke:#2C2C2C;stroke-linecap:round;stroke-miterlimit:10;" d="M562.155,234.965
				c-0.138-0.265-0.216-0.567-0.216-0.887c0-1.064,0.862-1.926,1.926-1.926c0.097,0,0.193,0.007,0.286,0.021"/>
			<path style="fill:#2C2C2C;" d="M575.183,230.928c0,0.681-0.341,1.233-0.76,1.233c-0.42,0-0.76-0.552-0.76-1.233
				c0-0.681,0.34-1.233,0.76-1.233C574.842,229.694,575.183,230.247,575.183,230.928z"/>
			<path style="fill:#2C2C2C;" d="M582.578,230.928c0,0.681-0.34,1.233-0.76,1.233c-0.42,0-0.76-0.552-0.76-1.233
				c0-0.681,0.341-1.233,0.76-1.233C582.237,229.694,582.578,230.247,582.578,230.928z"/>
			<path style="fill:#2C2C2C;" d="M575.709,227.424c0.074,0.487-0.549,0.451-1.487,0.594c-0.938,0.143-1.836,0.41-1.91-0.077
				c-0.074-0.487,0.627-0.997,1.565-1.14C574.814,226.658,575.635,226.937,575.709,227.424z"/>
			<path style="fill:#2C2C2C;" d="M583.783,227.78c-0.047,0.49-0.642,0.304-1.587,0.214c-0.945-0.09-1.881-0.049-1.834-0.54
				c0.047-0.49,0.85-0.815,1.795-0.725C583.102,226.819,583.83,227.289,583.783,227.78z"/>
			<path style="fill:none;stroke:#2C2C2C;stroke-linecap:round;stroke-miterlimit:10;" d="M579.098,229.963l0.587,4.658
				c0.07,0.552-0.353,1.042-0.909,1.055c-0.534,0.012-1.065,0.024-1.016,0.024"/>
			<path style="fill:none;stroke:#2C2C2C;stroke-linecap:round;stroke-miterlimit:10;" d="M573.786,237.549
				c0,0,0.47,1.412,1.882,1.824"/>
		</g>
		<g>
			<path style="fill:#F49377;" d="M509.224,334.883c0,0,2.57,6.214,2.38,7.821c-0.143,1.207-4.096,8.09-6.057,11.446
				c-0.611,1.045-1.827,1.396-2.81,0.812l0,0c-0.968-0.575-1.401-1.876-1.006-3.025l1.161-3.381c0.493-1.436-0.18-3.046-1.478-3.533
				l0,0c-1.221-0.458-2.545,0.25-3,1.605l-1.85,5.504l-1.013,6.311c-0.234,1.456-1.425,2.462-2.732,2.309l0,0
				c-1.28-0.15-2.252-1.364-2.252-2.812v-2.273l-2.93-7.604c-0.321-0.833-0.347-1.751-0.073-2.601l2.544-7.887
				c1.373-4.256,3.531-8.217,6.364-11.678l3.518-4.298l12.945,6.214L509.224,334.883z"/>
			<ellipse style="fill:#F49377;" cx="491.039" cy="353.203" rx="2.179" ry="2.453"/>
			<path style="fill:#F49377;" d="M492.081,350.004c0,1.355-0.975,2.453-2.179,2.453s-2.179-1.098-2.179-2.453
				c0-1.354,0.976-2.452,2.179-2.452S492.081,348.65,492.081,350.004z"/>
		</g>
		<path style="fill:#312983;" d="M576.849,455.263h31.073v-54.195c0-2.628-0.311-5.247-0.926-7.802l-19.05-79.163h-25.302
			l13.761,81.677L576.849,455.263z"/>
		<path style="fill:#312983;" d="M490.959,420.41l17.637,25.9l51.785-37.38c3.47-2.505,5.763-6.321,6.346-10.56l9.133-66.397
			l-28.77-6.913l-11.438,61.989L490.959,420.41z"/>
		<path style="fill:#EF5B00;" d="M594.197,281.317l6.614,42.733c0.942,6.085-3.785,11.569-9.943,11.535l-44.138-0.245
			c-5.797-0.032-10.354-4.97-9.921-10.751l2.285-30.523l-19.358,34.263c-1.888,3.342-6.157,4.474-9.453,2.507l-11.622-6.935
			c-3.379-2.017-4.362-6.464-2.146-9.717l31.261-45.898c6.352-10.919,18.106-17.547,30.738-17.344l4.436,0.073l17.213,0.276
			l2.272,0.036c4.443,0.073,8.843,0.857,13.031,2.338L594.197,281.317z"/>
		<path style="fill:#F9CB00;" d="M583.515,251.335l-4.578,10.003c-1.876,4.137-7.463,4.826-10.287,1.268l-9.47-11.931l3.491,0.051
			l16.98,0.278L583.515,251.335z"/>
		<path style="fill:#F49377;" d="M578.134,250.954l-2.462,4.736c-0.958,1.931-3.813,2.253-5.256,0.592l-4.68-5.499l1.625-0.048
			l8.675,0.13L578.134,250.954z"/>
		
			<line style="fill:none;stroke:#2C2C2C;stroke-linecap:round;stroke-miterlimit:10;" x1="573.985" y1="264.917" x2="580.153" y2="335.03"/>
		
			<line style="fill:none;stroke:#2C2C2C;stroke-linecap:round;stroke-miterlimit:10;" x1="594.197" y1="281.317" x2="593.132" y2="275.446"/>
		<path style="fill:#2C2C2C;" d="M573.21,222.483c0,1.623-1.316,2.939-2.939,2.939c-1.623,0-2.939-1.316-2.939-2.939
			c0-1.623,1.316-2.939,2.939-2.939C571.895,219.545,573.21,220.86,573.21,222.483z"/>
		<path style="fill:none;stroke:#2C2C2C;stroke-linecap:round;stroke-miterlimit:10;" d="M490.567,355.668l0.396-6.191
			c0.029-0.453,0.125-0.899,0.285-1.324l2.307-6.129"/>
		<path style="fill:none;stroke:#2C2C2C;stroke-linecap:round;stroke-miterlimit:10;" d="M489.011,352.074l0.179-2.162
			c0.171-2.06,0.604-4.09,1.289-6.041l0.384-1.093"/>
		<path style="fill:none;stroke:#2C2C2C;stroke-linecap:round;stroke-miterlimit:10;" d="M487.849,349.024
			c0,0,0.363-2.977,1.67-6.499"/>
		<g>
			<path style="fill:#F9CB00;" d="M583.727,219.547c0,0.599-0.038,1.173-0.125,1.747v0.012H559.38
				c-0.013-0.05-0.013-0.087-0.013-0.137c-0.075-0.524-0.112-1.073-0.112-1.622c0-6.751,5.478-12.229,12.23-12.229
				c4.131,0,7.774,2.034,9.996,5.166c1.111,1.56,1.859,3.394,2.134,5.391C583.689,218.424,583.727,218.973,583.727,219.547z"/>
			<path style="fill:#F9CB00;" d="M599.75,219.584c0,0.949-0.774,1.71-1.71,1.71H577.6v-3.419h20.441
				C598.976,217.875,599.75,218.648,599.75,219.584z"/>
		</g>
		<circle style="fill:none;stroke:#2C2C2C;stroke-linecap:round;stroke-miterlimit:10;" cx="578.072" cy="215.426" r="1.439"/>
		<path style="fill:#312983;" d="M549.246,251.158c0,0-0.02,25.295-11.754,46.231l-1.15,12.194c0,0,19.422-12.814,19.882-58.828
			L549.246,251.158z"/>
		<path style="fill:#312983;" d="M587.276,251.636l8.776,41.544l0.95-1.003c1.834-1.936,2.631-4.632,2.145-7.254l-6.074-32.192
			L587.276,251.636z"/>
		
			<line style="fill:none;stroke:#2C2C2C;stroke-linecap:round;stroke-miterlimit:10;" x1="598.675" y1="309.348" x2="596.053" y2="293.18"/>
		<path style="fill:none;stroke:#2C2C2C;stroke-linecap:round;stroke-miterlimit:10;" d="M565.042,316.036h-13.26
			c-1.09,0-1.973-0.884-1.973-1.973l0,0c0-1.09,0.883-1.973,1.973-1.973h13.26c1.09,0,1.973,0.883,1.973,1.973l0,0
			C567.015,315.153,566.131,316.036,565.042,316.036z"/>
		<circle style="fill:#FFFFFF;" cx="561.032" cy="274.078" r="2.786"/>
		<polyline style="fill:none;stroke:#2C2C2C;stroke-linecap:round;stroke-miterlimit:10;" points="571.182,366.606 573.593,354.987 
			576.443,351.699 		"/>
		<path style="fill:none;stroke:#FFFFFF;stroke-miterlimit:10;" d="M505.274,426.535l41.544-30.448
			c1.888-1.379,3.145-3.456,3.494-5.768l7.83-53.928"/>
		<path style="fill:none;stroke:#2C2C2C;stroke-linecap:round;stroke-miterlimit:10;" d="M577.614,467.516
			c0,0,7.716-0.711,9.239,7.006"/>
		<path style="fill:none;stroke:#2C2C2C;stroke-linecap:round;stroke-miterlimit:10;" d="M483.743,430.057
			c0,0,3.965,6.412-2.362,11.305"/>
		<g>
			<path style="fill:#5A44EB;" d="M538.479,355.887l-4.919,21.463c-0.504,2.198,0.993,4.352,3.228,4.648l7.482,0.988
				c2.253,0.298,4.326-1.273,4.651-3.522l3.118-21.644L538.479,355.887z"/>
			<polygon style="fill:#F9CB00;" points="538.479,355.887 539.545,351.145 552.729,352.974 552.04,357.818 			"/>
		</g>
		<g>
			<defs>
				<path id="SVGID_00000066504265595076773930000012184120052059080847_" d="M607.006,393.249l-19.05-79.163h-25.302l2.58,15.315
					l-18.134-4.358l-11.438,61.989l-44.693,33.362l17.637,25.9l51.785-37.38c3.47-2.505,5.763-6.321,6.346-10.56l4.546-33.05
					l5.132,30.46l0.444,59.482h31.073v-54.195C607.931,398.423,607.621,395.804,607.006,393.249z"/>
			</defs>
			<clipPath id="SVGID_00000152230793284706906170000001838521948081944457_">
				<use xlink:href="#SVGID_00000066504265595076773930000012184120052059080847_"  style="overflow:visible;"/>
			</clipPath>
			
				<line style="clip-path:url(#SVGID_00000152230793284706906170000001838521948081944457_);fill:none;stroke:#FFFFFF;stroke-miterlimit:10;" x1="496.452" y1="414.176" x2="515.443" y2="443.083"/>
			
				<line style="clip-path:url(#SVGID_00000152230793284706906170000001838521948081944457_);fill:none;stroke:#FFFFFF;stroke-miterlimit:10;" x1="567.508" y1="449.111" x2="617.059" y2="449.276"/>
		</g>
		<path style="fill:none;stroke:#2C2C2C;stroke-linecap:round;stroke-miterlimit:10;" d="M565.774,251.169"/>
		<g>
			<defs>
				<path id="SVGID_00000038400467370020648290000004789688474495826059_" d="M594.197,281.157l6.614,42.733
					c0.942,6.085-3.785,11.569-9.943,11.535l-44.138-0.245c-5.797-0.032-10.354-4.97-9.921-10.751l2.285-30.523l-19.358,34.263
					c-1.888,3.342-6.157,4.474-9.453,2.507l-11.622-6.935c-3.379-2.017-4.362-6.464-2.146-9.717l31.261-45.898
					c6.352-10.919,18.106-17.547,30.738-17.344l4.436,0.073l17.213,0.276l2.272,0.036c4.443,0.073,8.843,0.857,13.031,2.338
					L594.197,281.157z"/>
			</defs>
			<clipPath id="SVGID_00000170959399523066549280000010301399455343077548_">
				<use xlink:href="#SVGID_00000038400467370020648290000004789688474495826059_"  style="overflow:visible;"/>
			</clipPath>
			
				<path style="clip-path:url(#SVGID_00000170959399523066549280000010301399455343077548_);fill:none;stroke:#FFFFFF;stroke-miterlimit:10;" d="
				M527.955,258.828l-0.217,18.426c-0.034,2.887-0.925,5.698-2.561,8.077l-26.517,38.57"/>
		</g>
		<g>
			<defs>
				<path id="SVGID_00000121277255683638493740000010461431664841400461_" d="M600.022,320.214l-2.35-15.889
					c0,0-17.792,8.057-11.749,14.994C591.965,326.256,600.022,320.214,600.022,320.214z"/>
			</defs>
			<clipPath id="SVGID_00000014599885628010598990000008523751245039163291_">
				<use xlink:href="#SVGID_00000121277255683638493740000010461431664841400461_"  style="overflow:visible;"/>
			</clipPath>
			
				<path style="clip-path:url(#SVGID_00000014599885628010598990000008523751245039163291_);fill:none;stroke:#2C2C2C;stroke-linecap:round;stroke-miterlimit:10;" d="
				M604.484,316.036h-13.26c-1.09,0-1.973-0.884-1.973-1.973l0,0c0-1.09,0.883-1.973,1.973-1.973h13.26
				c1.09,0,1.973,0.883,1.973,1.973l0,0C606.458,315.153,605.574,316.036,604.484,316.036z"/>
		</g>
	</g>
	<g>
		
			<ellipse transform="matrix(0.1607 -0.987 0.987 0.1607 -18.9552 325.0767)" style="fill:#2C2C2C;" cx="181.67" cy="173.684" rx="10.883" ry="10.883"/>
		<polygon style="fill:#F49377;" points="208.499,245.945 250.378,253.932 248.003,228.244 207.42,216.372 		"/>
		<path style="fill:#F49377;" d="M248.528,200.719l-3.094-11.842c-0.312-1.195-1.09-2.215-2.16-2.833l-5.113-2.951l-2.838,2.704
			l-7.608,18.115l8.004,3.277L248.528,200.719z"/>
		<path style="fill:#F49377;" d="M243.311,192.783c0,6.501-5.27,11.771-11.771,11.771c-6.501,0-11.771-5.27-11.771-11.771
			c0-6.501,5.27-11.771,11.771-11.771c4.815,0,8.955,2.891,10.778,7.032C242.957,189.494,243.311,191.097,243.311,192.783z"/>
		<g>
			<path style="fill:#F49377;" d="M149.132,417.606c-0.76,0.434-23.692,25.218-23.692,25.218l41.539,35.333
				c0,0,4.56-2.604-0.17-10.181c-4.73-7.578-8.904-22.83-5.582-26.541c3.323-3.711,12.475-11.86,12.475-11.86L149.132,417.606z"/>
			<g>
				<path style="fill:#F9CB00;" d="M167.65,479.258l-43.314-37.248c0,0,3.37-3.602,7.631-8.14c0.964-1.027,2.576-1.094,3.62-0.149
					l15.053,13.624c2.709-1.959,5.377-2.526,7.61-2.498c1.254,0.016,2.273,1.018,2.351,2.269c0.405,6.53,3.516,15.943,6.927,21.477
					C172.445,476.558,167.65,479.258,167.65,479.258z"/>
				<path style="fill:none;stroke:#2C2C2C;stroke-linecap:round;stroke-miterlimit:10;" d="M149.529,458.203
					c0,0,3.908-4.396,11.982-3.69"/>
				
					<line style="fill:none;stroke:#2C2C2C;stroke-linecap:round;stroke-miterlimit:10;" x1="127.32" y1="439.163" x2="169.27" y2="476.617"/>
				<path style="fill:none;stroke:#2C2C2C;stroke-linecap:round;stroke-miterlimit:10;" d="M154.755,450.663
					c0,0,3.553-1.469,5.98-0.876"/>
			</g>
		</g>
		<g>
			<path style="fill:#F49377;" d="M260.193,477.88l-54.531-0.188c0,0,0.273-6.036,0.608-13.062
				c0.46-9.587,1.044-21.019,1.216-21.492l26.495-6.709c0,0-1.734,12.131-1.877,17.107c-0.033,1.144,0.628,2.492,1.768,3.931
				c3.829,4.833,13.071,10.636,19.621,12.746C261.999,472.948,260.193,477.88,260.193,477.88z"/>
			<g>
				<path style="fill:#F9CB00;" d="M262.802,478.429l-58.723-0.235c0,0,0.232-5.466,0.538-11.858
					c0.069-1.447,1.284-2.574,2.732-2.532l20.861,0.613c0.812-3.339,2.52-5.562,4.285-7.03c0.991-0.824,2.457-0.721,3.352,0.206
					c4.673,4.837,13.386,10.123,19.745,12.175C264.75,472.718,262.802,478.429,262.802,478.429z"/>
				<path style="fill:none;stroke:#2C2C2C;stroke-linecap:round;stroke-miterlimit:10;" d="M234.78,474.079
					c0,0-0.073-6.475,6.713-11.309"/>
				
					<line style="fill:none;stroke:#2C2C2C;stroke-linecap:round;stroke-miterlimit:10;" x1="204.513" y1="473.87" x2="262.306" y2="475.178"/>
				<path style="fill:none;stroke:#2C2C2C;stroke-linecap:round;stroke-miterlimit:10;" d="M233.64,464.267
					c0,0,1.799-3.519,4.093-4.674"/>
			</g>
		</g>
		<g>
			<path style="fill:#2C2C2C;" d="M186.414,193.093l-2.152-6.379c-2.022-5.994,2.365-12.225,8.69-12.343l17.148-0.319
				c2.91-0.054,5.298,2.29,5.298,5.2v0c0,2.872-2.329,5.201-5.201,5.201h-19.408v8.203
				C190.789,192.656,186.524,193.093,186.414,193.093z"/>
			<rect x="190.731" y="199.433" style="fill:#F49377;" width="13.312" height="17.606"/>
			<path style="fill:#F49377;" d="M200.635,207.106L200.635,207.106c-5.63,0-10.195-4.564-10.195-10.195v-12.46h20.389v12.46
				C210.83,202.542,206.265,207.106,200.635,207.106z"/>
			<path style="fill:#F49377;" d="M184.33,195.683c0,2.367,1.919,4.286,4.286,4.286c2.367,0,4.286-1.919,4.286-4.286
				s-1.919-4.286-4.286-4.286C186.249,191.396,184.33,193.316,184.33,195.683z"/>
			<path style="fill:none;stroke:#2C2C2C;stroke-linecap:round;stroke-miterlimit:10;" d="M198.643,205.596
				c0,0,1.59,1.431,5.247,0.954"/>
			<path style="fill:#2C2C2C;" d="M195.433,187.463c0,2.385-1.933,4.318-4.318,4.318c-2.385,0-4.318-1.933-4.318-4.318
				c0-2.385,1.933-4.318,4.318-4.318C193.499,183.145,195.433,185.078,195.433,187.463z"/>
			<path style="fill:none;stroke:#2C2C2C;stroke-linecap:round;stroke-miterlimit:10;" d="M186.897,197.012
				c-0.148-0.285-0.232-0.608-0.232-0.952c0-1.141,0.925-2.067,2.067-2.067c0.104,0,0.207,0.008,0.307,0.023"/>
			<path style="fill:#2C2C2C;" d="M200.877,192.68c0,0.731-0.365,1.323-0.816,1.323s-0.816-0.592-0.816-1.323
				c0-0.731,0.365-1.323,0.816-1.323S200.877,191.949,200.877,192.68z"/>
			<path style="fill:#2C2C2C;" d="M208.812,192.68c0,0.731-0.365,1.323-0.816,1.323c-0.451,0-0.816-0.592-0.816-1.323
				c0-0.731,0.365-1.323,0.816-1.323C208.447,191.356,208.812,191.949,208.812,192.68z"/>
			<path style="fill:#2C2C2C;" d="M201.442,188.92c0.079,0.522-0.589,0.484-1.596,0.637c-1.007,0.153-1.971,0.44-2.05-0.083
				c-0.079-0.523,0.672-1.07,1.679-1.223C200.481,188.098,201.362,188.397,201.442,188.92z"/>
			<path style="fill:#2C2C2C;" d="M210.106,189.301c-0.05,0.526-0.689,0.326-1.703,0.23c-1.014-0.097-2.018-0.053-1.968-0.579
				c0.05-0.526,0.912-0.874,1.926-0.778C209.375,188.27,210.156,188.775,210.106,189.301z"/>
			<path style="fill:none;stroke:#2C2C2C;stroke-linecap:round;stroke-miterlimit:10;" d="M205.078,191.644l0.63,4.998
				c0.075,0.592-0.379,1.119-0.976,1.132c-0.573,0.013-1.143,0.026-1.091,0.026"/>
			<path style="fill:none;stroke:#2C2C2C;stroke-linecap:round;stroke-miterlimit:10;" d="M199.378,199.786
				c0,0,0.505,1.515,2.02,1.957"/>
		</g>
		<g>
			<path style="fill:#282077;" d="M220.112,200.105c-3.842,0-6.968-3.126-6.968-6.968c0-3.842,3.126-6.968,6.968-6.968
				c3.842,0,6.968,3.126,6.968,6.968C227.081,196.979,223.955,200.105,220.112,200.105z"/>
			<rect x="220.145" y="186.18" style="fill:#2C2C2C;" width="11.699" height="13.943"/>
			<path style="fill:#5A44EB;" d="M231.918,200.105c-3.846,0-6.975-3.129-6.975-6.976c0-3.846,3.129-6.976,6.975-6.976
				c3.847,0,6.976,3.129,6.976,6.976C238.894,196.975,235.765,200.105,231.918,200.105z"/>
			<path style="fill:#FFFFFF;" d="M236.052,193.129c0,2.283-1.85,4.133-4.133,4.133c-2.283,0-4.133-1.851-4.133-4.133
				c0-2.283,1.85-4.133,4.133-4.133C234.201,188.996,236.052,190.846,236.052,193.129z"/>
		</g>
		<g>
			<path style="fill:#2C2C2C;" d="M205.124,200.105c-3.842,0-6.968-3.126-6.968-6.968c0-3.842,3.126-6.968,6.968-6.968
				c3.842,0,6.968,3.126,6.968,6.968C212.092,196.979,208.966,200.105,205.124,200.105z"/>
			<rect x="205.157" y="186.18" style="fill:#2C2C2C;" width="11.699" height="13.943"/>
			<path style="fill:#5A44EB;" d="M216.93,200.105c-3.846,0-6.976-3.129-6.976-6.976c0-3.846,3.129-6.976,6.976-6.976
				c3.847,0,6.976,3.129,6.976,6.976C223.906,196.975,220.777,200.105,216.93,200.105z"/>
			<path style="fill:#FFFFFF;" d="M221.064,193.129c0,2.283-1.851,4.133-4.133,4.133c-2.283,0-4.133-1.851-4.133-4.133
				c0-2.283,1.851-4.133,4.133-4.133C219.213,188.996,221.064,190.846,221.064,193.129z"/>
		</g>
		<path style="fill:#F49377;" d="M234.357,203.132l5.928,39.128c1.003,6.618,7.514,10.912,13.992,9.229l0,0
			c6.669-1.733,10.241-8.988,7.546-15.33l-14.106-37.467L234.357,203.132z"/>
		<g>
			<path style="fill:#282077;" d="M100.569,380.497L100.569,380.497c-1.009-0.251-1.625-1.273-1.374-2.282l13.568-54.603
				c0.251-1.009,1.273-1.625,2.282-1.374l0,0c1.009,0.251,1.624,1.272,1.374,2.282l-13.568,54.603
				C102.6,380.133,101.579,380.748,100.569,380.497z"/>
			<path style="fill:#EF5B00;" d="M121.897,390.798l-18.554,74.671c-1.013,4.077-5.132,6.556-9.203,5.544l-30.929-7.685
				c-4.071-1.012-6.551-5.131-5.538-9.207l18.554-74.67c1.012-4.071,5.132-6.556,9.203-5.544l30.929,7.685
				C120.43,382.602,122.908,386.727,121.897,390.798z"/>
			<g>
				<defs>
					<path id="SVGID_00000049211704107896439400000015974534646928592536_" d="M94.121,471.008l-30.925-7.684
						c-4.072-1.012-6.553-5.133-5.541-9.206l18.555-74.674c1.012-4.072,5.133-6.553,9.206-5.541l30.925,7.684
						c4.072,1.012,6.553,5.133,5.541,9.206l-18.555,74.674C102.315,469.539,98.194,472.02,94.121,471.008z"/>
				</defs>
				<clipPath id="SVGID_00000090995139172858502880000003517640666030994072_">
					<use xlink:href="#SVGID_00000049211704107896439400000015974534646928592536_"  style="overflow:visible;"/>
				</clipPath>
				
					<line style="clip-path:url(#SVGID_00000090995139172858502880000003517640666030994072_);fill:none;stroke:#2C2C2C;stroke-linecap:round;stroke-miterlimit:10;" x1="102.642" y1="371.564" x2="77.963" y2="470.884"/>
			</g>
			<path style="fill:#282077;" d="M80.655,429.359L80.655,429.359c-1.009-0.251-1.624-1.273-1.374-2.282l4.201-16.908
				c0.251-1.01,1.273-1.624,2.282-1.374l0,0c1.009,0.251,1.625,1.273,1.374,2.282l-4.201,16.908
				C82.687,428.994,81.665,429.609,80.655,429.359z"/>
			<path style="fill:#282077;" d="M65.314,461.161c-0.223,0.896-0.613,1.705-1.126,2.409l-0.977-0.243
				c-4.071-1.012-6.551-5.131-5.538-9.207l0.387-1.555c0.714-0.058,1.456,0.001,2.19,0.183
				C63.97,453.673,66.238,457.441,65.314,461.161z"/>
			<path style="fill:#282077;" d="M103.742,463.859l-0.4,1.609c-1.013,4.077-5.132,6.556-9.203,5.544l-0.826-0.205
				c-0.124-0.862-0.09-1.759,0.132-2.656c0.924-3.72,4.693-5.989,8.413-5.064C102.539,463.256,103.172,463.523,103.742,463.859z"/>
			<g>
				<path style="fill:#282077;" d="M61.967,465.185c-0.613,2.466-3.108,3.968-5.574,3.355c-2.466-0.613-3.968-3.108-3.355-5.574
					s3.108-3.968,5.574-3.355C61.078,460.223,62.58,462.719,61.967,465.185z"/>
				<path style="fill:#BBB5FF;" d="M57.038,465.946c-1.032-0.256-1.662-1.304-1.406-2.336c0.256-1.032,1.304-1.663,2.336-1.406
					c1.032,0.256,1.662,1.304,1.406,2.336C59.117,465.572,58.069,466.202,57.038,465.946z"/>
			</g>
			<g>
				<path style="fill:#282077;" d="M103.084,475.625c-0.613,2.466-3.108,3.968-5.574,3.355c-2.466-0.613-3.968-3.108-3.355-5.574
					c0.613-2.466,3.108-3.968,5.574-3.355C102.195,470.664,103.697,473.159,103.084,475.625z"/>
				<path style="fill:#BBB5FF;" d="M98.155,476.387c-1.032-0.256-1.662-1.304-1.406-2.336c0.256-1.032,1.304-1.663,2.336-1.406
					c1.032,0.256,1.663,1.304,1.406,2.336C100.234,476.012,99.186,476.643,98.155,476.387z"/>
			</g>
		</g>
		<g>
			<path style="fill:#F49377;" d="M125.289,311.802c0,0,2.98,7.206,2.759,9.069c-0.166,1.399-4.749,9.382-7.023,13.273
				c-0.708,1.212-2.119,1.619-3.259,0.942l0,0c-1.123-0.667-1.624-2.175-1.166-3.508l1.347-3.921
				c0.572-1.666-0.208-3.532-1.714-4.096l0,0c-1.415-0.531-2.951,0.29-3.479,1.861l-2.146,6.382l-1.175,7.319
				c-0.271,1.688-1.652,2.855-3.168,2.678l0,0c-1.484-0.174-2.611-1.582-2.611-3.261v-2.636l-3.398-8.818
				c-0.372-0.966-0.402-2.031-0.084-3.017l2.95-9.146c1.592-4.936,4.095-9.529,7.38-13.542l4.08-4.984l15.012,7.206L125.289,311.802
				z"/>
			<path style="fill:#F49377;" d="M106.728,333.046c0,1.571-1.131,2.844-2.527,2.844c-1.396,0-2.527-1.273-2.527-2.844
				c0-1.571,1.131-2.844,2.527-2.844C105.597,330.202,106.728,331.476,106.728,333.046z"/>
			<path style="fill:#F49377;" d="M105.41,329.337c0,1.571-1.131,2.844-2.527,2.844c-1.396,0-2.527-1.273-2.527-2.844
				c0-1.571,1.131-2.844,2.527-2.844C104.278,326.493,105.41,327.766,105.41,329.337z"/>
		</g>
		<path style="fill:#312983;" d="M239.739,388.552v62.849h-36.028l-0.236-31.705l-0.088-10.906l-0.128-17.773v-0.01l-0.069-8.587
			l-11.79-69.963l-2.407-14.334l-1.071-6.327l-0.688-4.097h29.347l6.003,24.936l5.846,24.326v0.01l3.046,12.645v0.01l7.192,29.877
			C239.385,382.47,239.739,385.506,239.739,388.552z"/>
		<path style="fill:#312983;" d="M138.036,418.99l28.801,22.155l43.53-59.919c2.917-4.015,4.063-9.049,3.171-13.931l-13.959-76.456
			l-34.199,2.792l9.825,72.434L138.036,418.99z"/>
		<path style="fill:none;stroke:#2C2C2C;stroke-linecap:round;stroke-miterlimit:10;" d="M203.049,391.297l6.825-9.394
			c2.917-4.015,4.063-9.049,3.172-13.931l-13.959-76.456"/>
		<path style="fill:#EF5B00;" d="M247.879,254.501l-24.052-4.816l9.752,63.006l-77.228-0.429l3.578-47.793l-28.784,44.291
			l-20.862-11.424l36.521-62.762c7.367-12.662,20.996-20.348,35.645-20.112l5.144,0.084l19.961,0.32l2.635,0.042
			c5.152,0.084,10.254,0.993,15.112,2.711l10.582,3.729l-3.94-10.633l20.087-4.723l10.751,31.326
			C266.063,246.865,257.796,256.395,247.879,254.501z"/>
		
			<line style="fill:none;stroke:#2C2C2C;stroke-linecap:round;stroke-miterlimit:10;" x1="159.929" y1="264.468" x2="167.869" y2="252.124"/>
		<g>
			<defs>
				<polygon id="SVGID_00000145051268513023161360000004913178819739616172_" points="216.578,287.804 187.237,287.804 
					187.926,291.891 165.382,293.731 175.207,366.165 138.036,419.09 166.838,441.245 203.259,391.112 203.709,451.496 
					239.742,451.496 239.742,384.063 				"/>
			</defs>
			<clipPath id="SVGID_00000063607921079140376100000014745091892911615924_">
				<use xlink:href="#SVGID_00000145051268513023161360000004913178819739616172_"  style="overflow:visible;"/>
			</clipPath>
			
				<line style="clip-path:url(#SVGID_00000063607921079140376100000014745091892911615924_);fill:none;stroke:#FFFFFF;stroke-miterlimit:10;" x1="141.432" y1="408.946" x2="176.625" y2="436.166"/>
			
				<line style="clip-path:url(#SVGID_00000063607921079140376100000014745091892911615924_);fill:none;stroke:#FFFFFF;stroke-miterlimit:10;" x1="200.27" y1="443.04" x2="243.162" y2="443.04"/>
		</g>
		<path style="fill:#F9CB00;" d="M207.553,214.865l-3.808,8.398c-1.533,3.382-6.102,3.945-8.411,1.036l-7.743-9.755l2.854,0.042
			l13.883,0.227L207.553,214.865z"/>
		
			<line style="fill:none;stroke:#2C2C2C;stroke-linecap:round;stroke-miterlimit:10;" x1="200.388" y1="230.667" x2="212.006" y2="312.598"/>
		
			<line style="fill:none;stroke:#2C2C2C;stroke-linecap:round;stroke-miterlimit:10;" x1="223.826" y1="249.685" x2="222.591" y2="242.876"/>
		
			<line style="fill:none;stroke:#2C2C2C;stroke-linecap:round;stroke-miterlimit:10;" x1="235.882" y1="221.348" x2="237.882" y2="227.652"/>
		<polygon style="fill:#F9CB00;" points="232.348,211.817 230.621,207.102 250.729,201.824 252.33,206.868 		"/>
		<polygon style="fill:#F9CB00;" points="110.282,297.335 113.112,292.504 134.155,303.954 131.144,308.76 		"/>
		<path style="fill:#2C2C2C;" d="M198.76,183.618c0,1.742-1.412,3.154-3.154,3.154s-3.154-1.412-3.154-3.154
			c0-1.742,1.412-3.154,3.154-3.154S198.76,181.876,198.76,183.618z"/>
		<circle style="fill:none;stroke:#2C2C2C;stroke-linecap:round;stroke-miterlimit:10;" cx="185.485" cy="171.673" r="8.445"/>
		<g>
			<path style="fill:none;stroke:#2C2C2C;stroke-linecap:round;stroke-miterlimit:10;" d="M181.853,300.65L181.853,300.65
				c-6.878,0.06-12.311-5.82-11.709-12.672l0.784-8.929h21.228l1.141,8.377C194.244,294.381,188.872,300.588,181.853,300.65z"/>
			<polygon style="fill:#F9CB00;" points="170.857,273.999 170.425,279.919 192.742,279.919 192.12,274.17 			"/>
		</g>
		<path style="fill:none;stroke:#2C2C2C;stroke-linecap:round;stroke-miterlimit:10;" d="M103.655,335.904l0.459-7.179
			c0.034-0.525,0.145-1.043,0.33-1.535l2.675-7.107"/>
		<path style="fill:none;stroke:#2C2C2C;stroke-linecap:round;stroke-miterlimit:10;" d="M101.85,331.736l0.207-2.507
			c0.198-2.389,0.7-4.743,1.495-7.005l0.445-1.267"/>
		<path style="fill:none;stroke:#2C2C2C;stroke-linecap:round;stroke-miterlimit:10;" d="M100.502,328.199
			c0,0,0.421-3.453,1.937-7.537"/>
		<path style="fill:#EF5B00;" d="M120.429,325.822c0,3.131-2.538,5.668-5.668,5.668s-5.669-2.538-5.669-5.668
			c0-3.131,2.538-5.669,5.669-5.669S120.429,322.692,120.429,325.822z"/>
		<g>
			<defs>
				<path id="SVGID_00000168836158549044260990000005881110094985622673_" d="M247.879,254.46l-24.052-4.816l9.752,63.006
					l-77.228-0.429l3.578-47.793l-28.784,44.291l-20.862-11.424l36.521-62.762c7.367-12.662,20.996-20.348,35.645-20.113
					l5.144,0.084l19.961,0.32l2.635,0.042c5.152,0.084,10.254,0.993,15.112,2.711l10.582,3.73l-3.94-10.633l20.087-4.723
					l10.751,31.326C266.063,246.824,257.796,256.354,247.879,254.46z"/>
			</defs>
			<clipPath id="SVGID_00000024680494721901377670000002498764312193468050_">
				<use xlink:href="#SVGID_00000168836158549044260990000005881110094985622673_"  style="overflow:visible;"/>
			</clipPath>
			
				<circle style="clip-path:url(#SVGID_00000024680494721901377670000002498764312193468050_);fill:none;stroke:#FFFFFF;stroke-miterlimit:10;" cx="261.216" cy="250.39" r="11.834"/>
			
				<circle style="clip-path:url(#SVGID_00000024680494721901377670000002498764312193468050_);fill:none;stroke:#FFFFFF;stroke-miterlimit:10;" cx="125.042" cy="262.549" r="11.834"/>
		</g>
		<ellipse style="fill:#5A44EB;" cx="182.902" cy="335.692" rx="3.859" ry="12.542"/>
		<path style="fill:#5A44EB;" d="M194.858,360.412c-4.712,5.077-9.797,8.018-11.36,6.568c-1.562-1.45,0.991-6.741,5.702-11.818
			s9.797-8.018,11.36-6.568C202.122,350.044,199.569,355.335,194.858,360.412z"/>
		<path style="fill:#5A44EB;" d="M180.415,401.721c-0.334,6.918-2.331,12.444-4.46,12.341c-2.129-0.103-3.584-5.795-3.249-12.713
			c0.334-6.918,2.331-12.444,4.46-12.341C179.294,389.111,180.749,394.803,180.415,401.721z"/>
		<path style="fill:#5A44EB;" d="M208.997,414.116c-1.837,2.299-3.773,4.225-5.522,5.581l-0.088-10.906
			c4.205-5.109,8.803-8.174,10.414-6.887C215.471,403.24,213.32,408.703,208.997,414.116z"/>
		<path style="fill:#5A44EB;" d="M239.739,426.584v8.361c-2.289-0.815-5.61-3.478-8.705-7.162c-4.46-5.305-6.74-10.719-5.109-12.085
			c1.631-1.375,6.563,1.818,11.014,7.123C238.01,424.088,238.953,425.366,239.739,426.584z"/>
		<path style="fill:#5A44EB;" d="M231.258,386.788c0.807,6.879-0.255,12.657-2.372,12.906s-4.487-5.127-5.293-12.007
			c-0.807-6.879,0.255-12.657,2.372-12.906C228.082,374.533,230.452,379.909,231.258,386.788z"/>
		<path style="fill:#5A44EB;" d="M231.476,349.616c-1.808-1.13-3.822-2.761-5.787-4.726c-4.903-4.893-7.644-10.09-6.141-11.593
			c1.228-1.228,4.913,0.373,8.882,3.665v0.01L231.476,349.616z"/>
	</g>
	<g>
		<path style="fill:none;stroke:#2C2C2C;stroke-linecap:round;stroke-miterlimit:10;" d="M522.989,144.962h55.475
			c0,0-8.377-15.526-15.709-10.631c-10.554,7.047-13.758,9.669-24.877,4.753C530.282,135.725,522.989,144.962,522.989,144.962z"/>
		
			<line style="fill:none;stroke:#2C2C2C;stroke-linecap:round;stroke-miterlimit:10;" x1="565.967" y1="159.351" x2="602.796" y2="159.351"/>
		
			<line style="fill:none;stroke:#2C2C2C;stroke-linecap:round;stroke-miterlimit:10;" x1="65.913" y1="240.945" x2="89.527" y2="240.945"/>
	</g>
</g>
<g id="TEXTS">
	<text transform="matrix(1 0 0 1 213.4204 101.2241)" style="fill:#282077; font-family:'Montserrat-Black'; font-size:46.5117px;">THE WORLD </text>
	<text transform="matrix(1 0 0 1 282.4614 53.918)" style="font-family:'OpenSans'; font-size:25.2355px;">LETS EXPLORE  </text>
</g>
</svg>
